<svg width="68" height="71" viewBox="0 0 68 71" fill="none" xmlns="http://www.w3.org/2000/svg">
<g clip-path="url(#clip0_729_28348)">
<g clip-path="url(#clip1_729_28348)">
<path d="M14.8446 40.7984L23.5612 35.4199C24.1877 35.0332 25.0315 35.2371 25.4169 35.8591C25.8032 36.4824 25.5982 37.3309 24.9776 37.7135L16.261 43.092C15.6347 43.4783 14.7916 43.2796 14.4066 42.6528C14.0216 42.0258 14.2178 41.1848 14.8446 40.7984ZM28.8559 32.3889C29.7166 32.3887 30.3657 33.2081 30.1689 34.0458C30.0906 34.3795 29.8612 34.6826 29.5591 34.874C29.3517 35.0054 29.1099 35.0842 28.8589 35.0842C28.3873 35.0842 27.9574 34.8458 27.7108 34.4443C27.1855 33.5891 27.8458 32.389 28.8559 32.3889ZM42.8109 35.7894C43.191 35.1839 44.0676 34.9882 44.6696 35.3685L53.3336 40.8319C53.9569 41.2249 54.1471 42.0669 53.7545 42.6897C53.5185 43.0642 53.0632 43.2837 52.6124 43.2964C52.3587 43.3035 52.1066 43.2452 51.8957 43.1122L43.2316 37.6474C42.6084 37.2545 42.4192 36.4131 42.8109 35.7894ZM39.3935 32.2851C40.0193 32.2851 40.5677 32.725 40.7061 33.3347C40.8946 34.1652 40.2371 34.9804 39.3908 34.9804C38.7661 34.9804 38.2147 34.5407 38.0768 33.9305C37.888 33.0949 38.5395 32.2851 39.3935 32.2851Z" fill="white"/>
<path d="M0.330637 62.3808C0.819025 61.8191 1.67021 61.7598 2.23191 62.2482C3.66891 63.4976 4.99877 64.7929 6.88428 65.3141C8.98028 65.8933 10.9723 65.4362 12.8692 64.4877L5.85076 40.8736C5.76587 40.5879 5.77805 40.2821 5.88542 40.0041C5.99278 39.7261 6.18927 39.4916 6.44414 39.3371L12.9375 35.4026L12.9375 23.9135C12.9375 23.1693 13.5409 22.5658 14.2852 22.5658L16.9805 22.5658L16.9805 18.5229C16.9805 17.7787 17.5838 17.1752 18.3282 17.1752L22.5733 17.1752L22.5733 13.1323C22.5733 12.3881 23.1766 11.7846 23.9209 11.7846L30.457 11.7846L30.457 2.35102C30.457 1.60685 31.0604 1.00337 31.8047 1.00337L37.1953 1.00337C37.9396 1.00337 38.543 1.60685 38.543 2.35102L38.543 11.7846L45.0791 11.7846C45.8234 11.7846 46.4267 12.3881 46.4267 13.1323L46.4267 17.1752L50.6718 17.1752C51.4161 17.1752 52.0195 17.7787 52.0195 18.5229L52.0195 22.5658L54.7148 22.5658C55.4591 22.5658 56.0625 23.1693 56.0625 23.9135L56.0625 35.4026L62.5557 39.337C62.8106 39.4914 63.0071 39.726 63.1145 40.004C63.2218 40.282 63.234 40.5878 63.1491 40.8734L56.1449 64.4393C56.2645 64.0372 58.421 63.7724 58.8022 63.723C62.7262 63.2152 65.71 65.1809 68.5366 67.6386C69.0983 68.127 69.1576 68.9781 68.6693 69.5398C68.2032 70.0759 67.3357 70.1659 66.7682 69.6725C63.8562 67.1411 60.5732 65.2114 56.7202 67.1381C53.2347 68.8808 49.6267 69.6281 45.9963 67.7176C43.0689 66.1767 40.244 64.8462 36.9764 66.4019L33.6171 68.0016C30.7431 69.3702 27.4619 69.3387 24.615 67.9151C22.8606 67.0379 21.0775 65.8705 19.0735 65.7328C17.1092 65.5979 15.2112 66.3293 13.4852 67.193C11.2051 68.3331 8.53583 68.5608 6.08741 67.8629C3.83211 67.2199 2.19081 65.7836 0.463518 64.2818C-0.0983179 63.7935 -0.157613 62.9425 0.330637 62.3808ZM15.6328 25.2611L15.6328 33.7695L29.6751 25.2611L15.6328 25.2611ZM35.8476 3.69868L33.1523 3.69868L33.1523 11.7846L35.8476 11.7846L35.8476 3.69868ZM43.7314 14.4799L25.2686 14.4799L25.2686 17.1752L43.7314 17.1752L43.7314 14.4799ZM53.3671 25.2611L39.3249 25.2611L53.3671 33.7695L53.3671 25.2611ZM35.8476 63.9543C35.8474 63.7148 37.7687 63.2731 38.0201 63.2186C40.3655 62.711 42.8835 63.0333 45.0098 64.1525C46.5526 64.9645 48.0411 65.9118 49.8056 66.139L49.8153 66.1402C50.8462 66.2655 51.9014 66.1896 52.8992 65.8987L60.2692 41.1031L35.8476 26.3058L35.8476 63.9543ZM49.3242 22.5658L49.3242 19.8705L19.6758 19.8705L19.6758 22.5658L49.3242 22.5658ZM15.3603 63.4077C15.3454 62.9907 19.139 62.9945 19.3932 63.0213C21.7325 63.2687 23.7561 64.4723 25.8204 65.5045C28.2591 66.7239 30.7685 66.3733 33.1523 65.2377L33.1523 26.3058L8.73084 41.1031L15.3603 63.4077Z" fill="white"/>
</g>
</g>
<defs>
<clipPath id="clip0_729_28348">
<rect width="68" height="71" fill="white" transform="matrix(1 0 0 -1 0 71)"/>
</clipPath>
<clipPath id="clip1_729_28348">
<rect width="69" height="69" fill="white" transform="matrix(-1 -8.74228e-08 -8.74228e-08 1 69 1)"/>
</clipPath>
</defs>
</svg>
