<svg width="70" height="69" viewBox="0 0 70 69" fill="none" xmlns="http://www.w3.org/2000/svg">
<g clip-path="url(#clip0_693_27805)">
<path d="M35.9527 42.9361C35.6998 42.6838 35.3573 42.5418 35 42.5413C34.6456 42.5413 34.2979 42.6841 34.0472 42.9361C33.7952 43.1893 33.6533 43.5317 33.6523 43.8889C33.6523 44.2434 33.7964 44.5911 34.0472 44.8417C34.3005 45.0935 34.6428 45.2353 35 45.2366C35.3544 45.2366 35.7021 45.0924 35.9527 44.8417C36.2045 44.5884 36.3464 44.2461 36.3477 43.8889C36.3477 43.5332 36.2035 43.1868 35.9527 42.9361Z" fill="#1665C8"/>
<path d="M59.3943 10.1047C52.8781 3.58854 44.2145 0 34.9995 0C28.2321 0 21.6802 1.95882 16.0514 5.66447C10.5663 9.27592 6.24142 14.3399 3.54463 20.3088C3.2383 20.9869 3.53964 21.7853 4.21791 22.0917C4.89592 22.3979 5.69441 22.0968 6.00086 21.4184C6.89442 19.4412 7.98856 17.5609 9.2661 15.8071C11.4337 17.159 13.8306 18.0423 16.3435 18.4175C16.3422 18.5029 16.3402 18.5881 16.3402 18.6738V23.5832C16.3402 24.3274 16.9437 24.9308 17.6879 24.9308C18.432 24.9308 19.0355 24.3274 19.0355 23.5832V18.6738C19.0355 18.657 19.0361 18.6404 19.0362 18.6235C19.0694 18.6237 19.1022 18.6254 19.1355 18.6254H33.6517V33.1515H25.8351C25.091 33.1515 24.4875 33.755 24.4875 34.4992C24.4875 35.2434 25.091 35.8468 25.8351 35.8468H33.6517V39.216C33.6517 39.9602 34.2551 40.5636 34.9993 40.5636C35.7435 40.5636 36.347 39.9602 36.347 39.216V35.8468H50.963V50.3397L50.9626 50.3749C50.9294 50.3747 50.8964 50.373 50.8631 50.373H44.2983C43.5541 50.373 42.9506 50.9764 42.9506 51.7206C42.9506 52.4648 43.5541 53.0683 44.2983 53.0683H50.7289C49.8938 57.8968 46.8821 61.9888 42.7442 64.2944L43.5131 63.5254C45.5259 61.5126 45.5259 58.2376 43.5131 56.2248L36.53 49.2416C35.555 48.2667 34.2587 47.7297 32.8797 47.7297C31.5008 47.7297 30.2044 48.2666 29.2293 49.2416L27.6369 50.834C27.0139 51.4576 25.9997 51.4573 25.3767 50.834L18.6652 44.1225C18.5163 43.9745 18.3982 43.7984 18.3179 43.6044C18.2375 43.4104 18.1964 43.2024 18.1969 42.9924C18.1969 42.5655 18.3632 42.1641 18.6652 41.8621L20.2576 40.2697C22.2703 38.257 22.2703 34.9821 20.2576 32.9689L13.2744 25.986C12.2995 25.0109 11.0031 24.4738 9.62417 24.4738C8.24525 24.4738 6.9488 25.0107 5.97377 25.9859L4.30309 27.6566C1.85076 30.1091 0.5 33.3697 0.5 36.8382C0.5 40.3064 1.85062 43.5672 4.30309 46.0196L10.432 52.1485C10.9584 52.6746 11.8114 52.6746 12.3379 52.1485C12.8642 51.6222 12.8642 50.7689 12.3379 50.2425L6.20908 44.1136C2.19724 40.1019 2.19724 33.5743 6.20908 29.5626L7.87977 27.8919C8.34579 27.4259 8.9653 27.1693 9.62417 27.1693C10.283 27.1693 10.9026 27.4259 11.3684 27.8919L18.3516 34.8748C19.3134 35.8369 19.3136 37.4019 18.3516 38.3637L16.7767 39.9386L11.6733 34.8352C11.1469 34.309 10.2938 34.309 9.76729 34.8352C9.24103 35.3614 9.24103 36.2148 9.76729 36.7412L15.5299 42.5037C15.5112 42.666 15.5017 42.8292 15.5014 42.9925C15.5014 44.1394 15.948 45.2176 16.7591 46.0285L23.4705 52.74C25.1446 54.4139 27.8687 54.4142 29.5429 52.74L31.1353 51.1476C31.3639 50.9178 31.6357 50.7356 31.9352 50.6116C32.2346 50.4876 32.5556 50.4242 32.8797 50.4251C33.5387 50.4251 34.1581 50.6817 34.624 51.1476L41.6072 58.1307C42.5691 59.0926 42.569 60.6576 41.6073 61.6196L40.0323 63.1943L34.1805 57.3425C33.6541 56.8164 32.801 56.8164 32.2745 57.3425C31.7482 57.8688 31.7482 58.7221 32.2745 59.2485L37.8999 64.8739C36.3393 65.8004 34.5546 66.2974 32.6931 66.3032H32.6283C29.8922 66.2947 27.3209 65.2262 25.3851 63.2904L19.8398 57.7452C19.3134 57.2191 18.4604 57.2191 17.9338 57.7452C17.4076 58.2714 17.4076 59.1248 17.9338 59.6512L23.479 65.1964C25.9045 67.622 29.121 68.9687 32.5467 68.998C32.5508 68.998 32.5545 68.9985 32.5584 68.9985H32.5955C32.6172 68.9987 32.6388 68.9993 32.6605 68.9993C32.6822 68.9993 32.7037 68.9987 32.7254 68.9985H34.9992C44.2143 68.9985 52.878 65.41 59.3941 58.8938C65.9104 52.3776 69.4988 43.7141 69.4988 34.4989C69.4988 25.2838 65.9104 16.6208 59.3943 10.1047ZM16.574 15.7259C14.5884 15.4081 12.6816 14.7148 10.9555 13.6832C13.9237 10.264 17.5841 7.52316 21.6672 5.63401C19.0256 8.33444 17.1949 11.8308 16.574 15.7259ZM33.6519 15.9304H19.2724C20.5016 8.8634 26.3937 3.37736 33.6518 2.76782V15.9304H33.6519ZM60.72 15.8153C64.2962 20.7247 66.5024 26.6919 66.7733 33.1519H53.6587V18.6741C53.6587 18.5884 53.6566 18.5032 53.6555 18.4177C56.1631 18.0434 58.5558 17.1628 60.72 15.8153ZM59.0319 13.6898C57.3089 14.7178 55.406 15.4088 53.4248 15.7259C52.8031 11.8261 50.9688 8.32582 48.3218 5.62404C52.4428 7.53313 56.0901 10.2972 59.0319 13.6898ZM36.3471 2.76782C43.6053 3.3775 49.4971 8.86353 50.7265 15.9304H36.3471V2.76782ZM36.3471 33.1521V18.6258H50.8633C50.8964 18.6258 50.9293 18.6241 50.9626 18.6239C50.9626 18.6408 50.9633 18.6574 50.9633 18.6742V33.1521H36.3471ZM48.3488 63.3626C50.9846 60.6612 52.81 57.1662 53.4272 53.2738C55.4076 53.591 57.3096 54.2819 59.0319 55.3096C56.0965 58.6946 52.4588 61.4539 48.3488 63.3626ZM60.7197 53.184C58.5557 51.8367 56.1631 50.9561 53.6553 50.5817C53.6564 50.5011 53.6584 50.4209 53.6584 50.3402V35.8473H66.773C66.5023 42.3072 64.296 48.2744 60.7197 53.184Z" fill="#1665C8"/>
<path d="M16.0777 53.9845C15.8248 53.7321 15.4823 53.59 15.125 53.5895C14.7676 53.5898 14.425 53.7319 14.1722 53.9845C13.9199 54.2374 13.7779 54.5799 13.7773 54.9372C13.7773 55.2917 13.9202 55.6393 14.1722 55.89C14.4253 56.142 14.7678 56.2839 15.125 56.2848C15.4794 56.2848 15.8271 56.1408 16.0777 55.89C16.3295 55.6367 16.4714 55.2944 16.4727 54.9372C16.4727 54.5827 16.3285 54.235 16.0777 53.9845Z" fill="#1665C8"/>
</g>
<defs>
<clipPath id="clip0_693_27805">
<rect width="69" height="69" fill="#1665C8" transform="translate(0.5)"/>
</clipPath>
</defs>
</svg>
