<svg width="70" height="69" viewBox="0 0 70 69" fill="none" xmlns="http://www.w3.org/2000/svg">
<g clip-path="url(#clip0_693_27797)">
<path d="M67.3753 23.7979C61.7856 5.94276 42.7167 -4.03543 24.8581 1.55196C7.00176 7.14163 -2.97763 26.2151 2.61096 44.0702L4.80522 43.3829C-0.405226 26.7382 8.89832 8.95652 25.5454 3.745C33.6098 1.22205 42.1741 1.98981 49.658 5.90596C57.1454 9.82441 62.6581 16.422 65.1822 24.4853C67.7052 32.5485 66.9385 41.1117 63.0213 48.598C59.1051 56.0853 52.5075 61.598 44.4432 64.1222C30.9454 68.3462 16.1501 63.0118 8.45467 51.1475L6.52591 52.3981C12.8868 62.2073 23.7742 67.8556 35.0604 67.8544C38.4167 67.8544 41.8109 67.3555 45.1294 66.3141C53.7788 63.6072 60.8559 57.6934 65.0581 49.6636C69.2604 41.6335 70.0822 32.4474 67.3753 23.7979Z" fill="white"/>
<path d="M28.3312 16.0921L28.991 13.8898L17.4967 10.4415C17.2979 10.3818 17.0867 10.3772 16.8856 10.428C16.6844 10.4788 16.5007 10.5832 16.3541 10.73L14.0553 13.0289C13.9234 13.1609 13.8256 13.323 13.7704 13.5012C13.7151 13.6794 13.704 13.8684 13.7381 14.0519C13.7721 14.2352 13.8503 14.4076 13.9658 14.5539C14.0814 14.7003 14.2308 14.8164 14.4013 14.8921L24.7461 19.4898L25.6795 17.3887L16.8646 13.4702L17.4945 12.8403L28.3312 16.0921Z" fill="white"/>
<path d="M39.0077 9.24506C39.0078 9.0941 38.9781 8.94462 38.9203 8.80515C38.8626 8.66568 38.7779 8.53896 38.6712 8.43222C38.5644 8.32548 38.4377 8.24082 38.2982 8.18306C38.1588 8.12531 38.0093 8.09561 37.8583 8.09564H37.856C35.3273 8.09564 32.9491 9.08064 31.1606 10.8693L21.4135 20.6152L17.4469 19.6232C17.2542 19.575 17.0524 19.5775 16.861 19.6304C16.6696 19.6834 16.4952 19.7851 16.3548 19.9255L14.056 22.2243C13.9324 22.3477 13.8385 22.4976 13.7815 22.6627C13.7246 22.8279 13.706 23.0038 13.7273 23.1771C13.7486 23.3505 13.8091 23.5167 13.9044 23.6631C13.9996 23.8096 14.1269 23.9323 14.2768 24.0221L19.7779 27.3232L23.079 32.8243C23.1688 32.9741 23.2915 33.1015 23.4379 33.1967C23.5843 33.2919 23.7505 33.3524 23.9238 33.3738C24.0973 33.3947 24.2732 33.376 24.4384 33.3193C24.6036 33.2626 24.7539 33.1693 24.878 33.0463L27.1768 30.7475C27.317 30.6069 27.4185 30.4325 27.4714 30.2412C27.5244 30.0499 27.527 29.8481 27.4791 29.6554L26.4883 25.6933L36.3906 15.8887C38.0801 14.1197 39.01 11.7956 39.0077 9.24506ZM24.4043 24.5186C24.2625 24.6589 24.1597 24.8336 24.1059 25.0257C24.0521 25.2177 24.0492 25.4204 24.0974 25.614L25.0894 29.5807L24.2917 30.3783L21.6009 25.8933C21.504 25.7315 21.3685 25.5961 21.2067 25.4991L16.7217 22.8083L17.5194 22.0106L21.486 23.0026C21.6787 23.0509 21.8805 23.0484 22.0719 22.9954C22.2633 22.9424 22.4377 22.8408 22.5781 22.7003L32.7849 12.4934C33.8424 11.4349 35.1734 10.7486 36.6171 10.4992C36.3895 11.9199 35.7424 13.2371 34.7493 14.2773L24.4043 24.5186Z" fill="white"/>
<path d="M36.6587 29.7565L33.2104 18.1129L31.0058 18.7658L34.246 29.7061L33.5483 30.3223L29.7161 21.4326L27.6046 22.3429L32.0644 32.6878C32.1534 32.894 32.3009 33.0697 32.4886 33.1931C32.6763 33.3165 32.8961 33.3822 33.1207 33.3821C33.4005 33.3823 33.6708 33.2801 33.8805 33.0948L36.3173 30.9454C36.4816 30.8003 36.6009 30.6114 36.6614 30.4008C36.7219 30.1901 36.7209 29.9666 36.6587 29.7565ZM22.9506 63.3784C14.7644 67.2576 8.34255 67.7588 5.33566 64.7531C0.124137 59.5416 5.78389 44.4003 18.5 29.5313L16.7529 28.037C2.80584 44.345 -2.55851 60.1117 3.70931 66.3784C5.45991 68.1278 7.93232 69.0003 10.9989 69.0003C14.5736 69.0003 18.9552 67.8153 23.9345 65.4554L22.9506 63.3784ZM61.8599 39.7358C61.7616 39.5524 61.6154 39.399 61.4369 39.2922C61.2583 39.1853 61.0541 39.1289 60.846 39.1289H56.9587L53.8277 32.868C53.7321 32.677 53.5852 32.5164 53.4035 32.4041C53.2218 32.2919 53.0125 32.2324 52.7989 32.2323H41.3046C41.1536 32.2322 41.0042 32.2619 40.8647 32.3197C40.7252 32.3774 40.5985 32.4621 40.4917 32.5688C40.385 32.6756 40.3003 32.8023 40.2426 32.9418C40.1848 33.0813 40.1551 33.2308 40.1552 33.3817V42.5772C40.155 42.7282 40.1847 42.8777 40.2424 43.0172C40.3001 43.1567 40.3848 43.2835 40.4915 43.3903C40.5983 43.497 40.7251 43.5817 40.8646 43.6394C41.0041 43.6971 41.1536 43.7267 41.3046 43.7266H44.7529V56.3703C44.7527 56.5213 44.7823 56.6708 44.84 56.8104C44.8977 56.9499 44.9824 57.0767 45.0892 57.1834C45.1959 57.2902 45.3227 57.3748 45.4622 57.4326C45.6017 57.4903 45.7513 57.5199 45.9023 57.5197H51.6493C51.8006 57.5197 51.9503 57.4898 52.09 57.4318C52.2296 57.3738 52.3564 57.2888 52.4632 57.1817L57.0609 52.5841C57.1678 52.4775 57.2526 52.3509 57.3104 52.2114C57.3682 52.0719 57.3979 51.9224 57.3976 51.7714V47.522L61.8022 40.9151C61.9176 40.7421 61.9839 40.5411 61.994 40.3334C62.0042 40.1257 61.9578 39.9192 61.8599 39.7358ZM55.2909 46.537C55.1652 46.7261 55.098 46.948 55.0977 47.175V51.2968L51.1736 55.2209H47.0506V42.5772C47.0508 42.4262 47.0211 42.2767 46.9634 42.1371C46.9057 41.9976 46.8211 41.8708 46.7143 41.7641C46.6075 41.6573 46.4808 41.5726 46.3412 41.5149C46.2017 41.4572 46.0522 41.4276 45.9012 41.4278H42.4529V34.5313H52.0875L55.2185 40.7922C55.3141 40.9832 55.4609 41.1438 55.6426 41.256C55.8243 41.3683 56.0336 41.4278 56.2472 41.4279H58.6977L55.2909 46.537ZM62.661 29.9335L58.3944 22.4668C58.2939 22.2908 58.1487 22.1446 57.9735 22.0428C57.7983 21.9411 57.5993 21.8875 57.3967 21.8874H50.5002C50.311 21.8875 50.1248 21.9342 49.958 22.0234C49.7912 22.1126 49.649 22.2416 49.5439 22.3989L47.5864 25.3357H44.7531V19.5886H50.5002C50.6512 19.5887 50.8007 19.559 50.9401 19.5012C51.0796 19.4434 51.2062 19.3587 51.3128 19.2518L55.5737 14.9909H60.8449V12.6921H55.0979C54.9469 12.692 54.7974 12.7216 54.658 12.7794C54.5185 12.8372 54.3918 12.922 54.2852 13.0289L50.0243 17.2898H43.6037C43.4527 17.2897 43.3033 17.3194 43.1638 17.3771C43.0243 17.4349 42.8976 17.5196 42.7908 17.6263C42.6841 17.733 42.5994 17.8598 42.5417 17.9992C42.4839 18.1387 42.4542 18.2882 42.4543 18.4392V26.4851C42.4543 26.636 42.484 26.7855 42.5417 26.925C42.5995 27.0645 42.6841 27.1912 42.7909 27.2979C42.8976 27.4047 43.0243 27.4893 43.1638 27.5471C43.3033 27.6048 43.4528 27.6345 43.6037 27.6345H48.2014C48.3905 27.6344 48.5767 27.5877 48.7435 27.4985C48.9103 27.4093 49.0526 27.2803 49.1577 27.1231L51.1151 24.1863H56.7301L60.9968 31.6529C61.0973 31.8289 61.2425 31.9751 61.4177 32.0769C61.5929 32.1786 61.7919 32.2322 61.9945 32.2323H66.5922V29.9335H62.661Z" fill="white"/>
<path d="M34.4105 41.4278H27.9898L24.8784 38.3163C24.7718 38.2094 24.6451 38.1246 24.5056 38.0668C24.3662 38.009 24.2167 37.9794 24.0657 37.9795H18.3187C18.1677 37.9795 18.0182 38.0092 17.8788 38.0669C17.7393 38.1247 17.6126 38.2093 17.5058 38.3161C17.3991 38.4228 17.3144 38.5495 17.2567 38.689C17.1989 38.8285 17.1692 38.978 17.1692 39.1289V47.1748C17.1692 47.3258 17.1989 47.4753 17.2566 47.6148C17.3144 47.7542 17.399 47.881 17.5058 47.9877C17.6125 48.0945 17.7393 48.1791 17.8787 48.2369C18.0182 48.2946 18.1677 48.3243 18.3187 48.3242H22.9163V59.8185C22.9163 60.0321 22.9758 60.2415 23.0881 60.4232C23.2004 60.6048 23.361 60.7517 23.552 60.8472C23.7117 60.9265 23.8876 60.9678 24.0659 60.968C24.3146 60.9682 24.5567 60.8875 24.7555 60.738L29.3531 57.2898C29.4958 57.1827 29.6117 57.0439 29.6915 56.8843C29.7713 56.7247 29.8129 56.5487 29.8129 56.3703V53.4738L35.129 49.2221C35.2636 49.1143 35.3721 48.9777 35.4467 48.8223C35.5213 48.6669 35.56 48.4967 35.56 48.3244V42.5773C35.56 42.4263 35.5303 42.2768 35.4726 42.1374C35.4148 41.9979 35.3301 41.8712 35.2234 41.7644C35.1166 41.6577 34.9899 41.573 34.8504 41.5152C34.7109 41.4575 34.5614 41.4277 34.4105 41.4278ZM33.2611 47.7727L27.945 52.0244C27.8105 52.1322 27.7019 52.2688 27.6273 52.4242C27.5527 52.5795 27.514 52.7497 27.514 52.922V55.7957L25.2152 57.5198V47.175C25.2152 47.024 25.1855 46.8745 25.1278 46.735C25.07 46.5956 24.9854 46.4688 24.8786 46.3621C24.7719 46.2553 24.6451 46.1707 24.5057 46.1129C24.3662 46.0552 24.2167 46.0255 24.0657 46.0256H19.4681V40.2785H23.5899L26.7013 43.3899C26.808 43.4968 26.9346 43.5816 27.0741 43.6394C27.2135 43.6971 27.363 43.7268 27.514 43.7267H33.2611V47.7727ZM11.2576 24.7439L7.80936 18.9968C7.70734 18.8267 7.56298 18.6859 7.39035 18.5882C7.21772 18.4905 7.02272 18.4392 6.82436 18.4393H5.67495V20.7381H6.17385L8.82563 25.1576L6.01186 27.9714C5.90498 28.078 5.8202 28.2047 5.76241 28.3441C5.70461 28.4836 5.67494 28.6331 5.67508 28.784V32.2323H2.22656V34.5311H6.82423C7.12904 34.531 7.42133 34.4099 7.63687 34.1943C7.8524 33.9788 7.97354 33.6865 7.97364 33.3817V29.2599L11.0851 26.1484C11.2662 25.967 11.3815 25.7303 11.4128 25.4758C11.444 25.2214 11.3894 24.9638 11.2576 24.7439ZM36.7105 1.19792V2.60016L32.9829 3.53233C32.8553 3.56462 32.734 3.61825 32.6243 3.69095L29.7311 5.61972L23.4311 2.46917L22.4025 4.52542L29.299 7.97367C29.4801 8.06398 29.682 8.10484 29.884 8.09214C30.086 8.07943 30.2811 8.0136 30.4496 7.9013L33.7323 5.71284L38.1381 4.61167C38.3868 4.5496 38.6077 4.40616 38.7656 4.20414C38.9235 4.00213 39.0093 3.75314 39.0094 3.49675V1.19792H36.7105Z" fill="white"/>
</g>
<defs>
<clipPath id="clip0_693_27797">
<rect width="69" height="69" fill="white" transform="translate(0.5)"/>
</clipPath>
</defs>
</svg>
