<svg width="68" height="69" viewBox="0 0 68 69" fill="none" xmlns="http://www.w3.org/2000/svg">
<g clip-path="url(#clip0_693_27814)">
<path d="M14.8426 39.7984L23.5593 34.4199C24.1858 34.0332 25.0296 34.2371 25.415 34.8591C25.8012 35.4824 25.5962 36.3309 24.9756 36.7135L16.259 42.092C15.6328 42.4783 14.7897 42.2796 14.4046 41.6528C14.0196 41.0258 14.2158 40.1848 14.8426 39.7984ZM28.8539 31.3889C29.7147 31.3887 30.3637 32.2081 30.167 33.0458C30.0887 33.3795 29.8593 33.6826 29.5571 33.874C29.3497 34.0054 29.108 34.0842 28.8569 34.0842C28.3854 34.0842 27.9554 33.8458 27.7088 33.4443C27.1835 32.5891 27.8439 31.389 28.8539 31.3889ZM42.8089 34.7894C43.1891 34.1839 44.0656 33.9882 44.6676 34.3685L53.3317 39.8319C53.955 40.2249 54.1451 41.0669 53.7526 41.6897C53.5166 42.0642 53.0612 42.2837 52.6104 42.2964C52.3568 42.3035 52.1046 42.2452 51.8937 42.1122L43.2297 36.6474C42.6065 36.2545 42.4173 35.4131 42.8089 34.7894ZM39.3915 31.2851C40.0174 31.2851 40.5657 31.725 40.7041 32.3347C40.8927 33.1652 40.2352 33.9804 39.3888 33.9804C38.7642 33.9804 38.2127 33.5407 38.0749 32.9305C37.8861 32.0949 38.5375 31.2851 39.3915 31.2851Z" fill="white"/>
<path d="M0.330637 61.3808C0.819025 60.8191 1.67021 60.7598 2.23191 61.2482C3.66891 62.4976 4.99877 63.7929 6.88428 64.3141C8.98028 64.8933 10.9723 64.4362 12.8692 63.4877L5.85076 39.8736C5.76587 39.5879 5.77805 39.2821 5.88542 39.0041C5.99278 38.7261 6.18927 38.4916 6.44414 38.3371L12.9375 34.4026L12.9375 22.9135C12.9375 22.1693 13.5409 21.5658 14.2852 21.5658L16.9805 21.5658L16.9805 17.5229C16.9805 16.7787 17.5838 16.1752 18.3282 16.1752L22.5733 16.1752L22.5733 12.1323C22.5733 11.3881 23.1766 10.7846 23.9209 10.7846L30.457 10.7846L30.457 1.35102C30.457 0.606848 31.0604 0.00336888 31.8047 0.00336894L37.1953 0.00336941C37.9396 0.00336948 38.543 0.606849 38.543 1.35102L38.543 10.7846L45.0791 10.7846C45.8234 10.7846 46.4267 11.3881 46.4267 12.1323L46.4267 16.1752L50.6718 16.1752C51.4161 16.1752 52.0195 16.7787 52.0195 17.5229L52.0195 21.5658L54.7148 21.5658C55.4591 21.5658 56.0625 22.1693 56.0625 22.9135L56.0625 34.4026L62.5557 38.337C62.8106 38.4914 63.0071 38.726 63.1145 39.004C63.2218 39.282 63.234 39.5878 63.1491 39.8734L56.1449 63.4393C56.2645 63.0372 58.421 62.7724 58.8022 62.723C62.7262 62.2152 65.71 64.1809 68.5366 66.6386C69.0983 67.127 69.1576 67.9781 68.6693 68.5398C68.2032 69.0759 67.3357 69.1659 66.7682 68.6725C63.8562 66.1411 60.5732 64.2114 56.7202 66.1381C53.2347 67.8808 49.6267 68.6281 45.9963 66.7176C43.0689 65.1767 40.244 63.8462 36.9764 65.4019L33.6171 67.0016C30.7431 68.3702 27.4619 68.3387 24.615 66.9151C22.8606 66.0379 21.0775 64.8705 19.0735 64.7328C17.1092 64.5979 15.2112 65.3293 13.4852 66.193C11.2051 67.3331 8.53583 67.5608 6.08741 66.8629C3.83211 66.2199 2.19081 64.7836 0.463518 63.2818C-0.0983179 62.7935 -0.157613 61.9425 0.330637 61.3808ZM15.6328 24.2611L15.6328 32.7695L29.6751 24.2611L15.6328 24.2611ZM35.8476 2.69868L33.1523 2.69868L33.1523 10.7846L35.8476 10.7846L35.8476 2.69868ZM43.7314 13.4799L25.2686 13.4799L25.2686 16.1752L43.7314 16.1752L43.7314 13.4799ZM53.3671 24.2611L39.3249 24.2611L53.3671 32.7695L53.3671 24.2611ZM35.8476 62.9543C35.8474 62.7148 37.7687 62.2731 38.0201 62.2186C40.3655 61.711 42.8835 62.0333 45.0098 63.1525C46.5526 63.9645 48.0411 64.9118 49.8056 65.139L49.8153 65.1402C50.8462 65.2655 51.9014 65.1896 52.8992 64.8987L60.2692 40.1031L35.8476 25.3058L35.8476 62.9543ZM49.3242 21.5658L49.3242 18.8705L19.6758 18.8705L19.6758 21.5658L49.3242 21.5658ZM15.3603 62.4077C15.3454 61.9907 19.139 61.9945 19.3932 62.0213C21.7325 62.2687 23.7561 63.4723 25.8204 64.5045C28.2591 65.7239 30.7685 65.3733 33.1523 64.2377L33.1523 25.3058L8.73084 40.1031L15.3603 62.4077Z" fill="white"/>
</g>
<defs>
<clipPath id="clip0_693_27814">
<rect width="69" height="69" fill="white" transform="matrix(-1 -8.74228e-08 -8.74228e-08 1 69 0)"/>
</clipPath>
</defs>
</svg>
