<svg width="15" height="14" viewBox="0 0 15 14" fill="none" xmlns="http://www.w3.org/2000/svg">
<path d="M14.7351 11.6561L14.6465 11.8095C14.0507 12.4601 13.0755 12.4357 12.2815 12.2544C11.4427 12.0162 10.732 11.4841 9.97525 11.0679C8.33391 11.8788 6.69144 12.6916 5.05174 13.5086C4.72799 13.6791 4.36811 13.7821 3.99997 13.7379L2.28875 12.7499C2.27598 12.2427 2.70654 11.95 3.03952 11.6424C4.09128 10.7268 5.1278 9.79725 6.17097 8.87411C5.52528 8.49874 4.87735 8.12724 4.22942 7.75575C3.56499 8.02737 2.92803 8.37701 2.23531 8.56754C1.65598 8.40918 1.17977 8.02287 0.748682 7.62118L0.885497 7.38421C1.62407 6.58046 2.51502 5.91648 3.19929 5.06324C3.53286 4.05933 3.69945 3.00822 3.99746 1.99413L4.14549 1.73774C4.70329 1.91994 5.27319 2.13502 5.70143 2.5506C5.88861 3.24915 5.90205 3.97947 5.99985 4.69375C6.64666 5.06719 7.29041 5.44144 7.93834 5.81294C8.24315 4.33402 8.54295 2.8548 8.84388 1.37364C8.89495 1.02501 9.0427 0.7063 9.34209 0.50622L11.0766 1.50766C11.2845 1.81154 11.3794 2.17194 11.3917 2.53643C11.5051 4.36301 11.6216 6.18877 11.7412 8.0137C12.4831 8.46017 13.3053 8.80796 13.9254 9.42497C14.4697 10.0163 14.9438 10.8235 14.7351 11.6561Z" fill="#7B7B7B"/>
</svg>
