<svg width="20" height="20" viewBox="0 0 20 20" fill="none" xmlns="http://www.w3.org/2000/svg">
<g id="location" clip-path="url(#clip0_692_25098)">
<g id="vuesax/bold/location">
<path id="Vector" d="M16.3028 6.72927C15.4747 3.12341 12.2961 1.5 9.50394 1.5C9.50394 1.5 9.50394 1.5 9.49606 1.5C6.71182 1.5 3.52534 3.11561 2.69717 6.72146C1.77435 10.7488 4.26675 14.1595 6.52253 16.3059C7.35859 17.1019 8.43126 17.5 9.50394 17.5C10.5766 17.5 11.6493 17.1019 12.4775 16.3059C14.7333 14.1595 17.2257 10.7566 16.3028 6.72927ZM9.50394 10.6395C8.13155 10.6395 7.01943 9.53902 7.01943 8.18098C7.01943 6.82293 8.13155 5.72244 9.50394 5.72244C10.8763 5.72244 11.9885 6.82293 11.9885 8.18098C11.9885 9.53902 10.8763 10.6395 9.50394 10.6395Z" fill="white"/>
</g>
</g>
<defs>
<clipPath id="clip0_692_25098">
<rect width="19" height="19" fill="white" transform="translate(0.5 0.5)"/>
</clipPath>
</defs>
</svg>
