<svg width="58" height="15" viewBox="0 0 58 15" fill="none" xmlns="http://www.w3.org/2000/svg">
<path id="Long-arrow-right" fill-rule="evenodd" clip-rule="evenodd" d="M51.4851 1.11833C51.1436 0.776838 50.5899 0.776839 50.2484 1.11833C49.9069 1.45983 49.9069 2.01351 50.2484 2.355L54.5184 6.625H1.42187C0.938624 6.625 0.546875 7.01675 0.546875 7.5C0.546875 7.98325 0.938626 8.375 1.42188 8.375H54.5184L50.2484 12.645C49.9069 12.9865 49.9069 13.5402 50.2484 13.8817C50.5899 14.2232 51.1436 14.2232 51.4851 13.8817L57.7974 7.56931C57.8357 7.53103 57.8357 7.46897 57.7974 7.4307L51.4851 1.11833Z" fill="url(#paint0_linear_511_49014)"/>
<defs>
<linearGradient id="paint0_linear_511_49014" x1="-0.606618" y1="7.36985" x2="59.3633" y2="8.50551" gradientUnits="userSpaceOnUse">
<stop stop-color="#0E55B1"/>
<stop offset="1" stop-color="#169FC3"/>
</linearGradient>
</defs>
</svg>
