<svg width="70" height="69" viewBox="0 0 70 69" fill="none" xmlns="http://www.w3.org/2000/svg">
<g clip-path="url(#clip0_692_24083)">
<path d="M64.0562 8.56866C62.2594 6.65995 60.1038 5.1244 57.7128 4.04993C55.3218 2.97547 52.7423 2.38319 50.1221 2.30703C47.5018 2.23087 44.8923 2.67231 42.4429 3.60607C39.9935 4.53984 37.7524 5.94759 35.8478 7.74871L34.975 8.57326C27.4149 0.555462 14.7879 0.184012 6.77005 7.74296C-1.2489 15.3031 -1.62035 27.9312 5.9386 35.949L7.90395 38.0317C7.4963 38.9755 7.34583 40.0104 7.46784 41.0313C7.58985 42.0521 7.97998 43.0224 8.59858 43.8436C9.21718 44.6648 10.0422 45.3075 10.9897 45.7065C11.9373 46.1054 12.9735 46.2464 13.9932 46.115C13.82 47.0167 13.8635 47.9466 14.1201 48.8282C14.3768 49.7098 14.8392 50.5177 15.4694 51.1855C16.0995 51.8533 16.8794 52.3618 17.7446 52.6691C18.6098 52.9763 19.5357 53.0736 20.4459 52.9529C20.2726 53.8544 20.3161 54.7842 20.5727 55.6657C20.8293 56.5471 21.2916 57.3549 21.9217 58.0226C22.5517 58.6903 23.3314 59.1987 24.1965 59.5059C25.0616 59.8131 25.9873 59.9104 26.8974 59.7897C26.6744 61.0006 26.8397 62.251 27.3697 63.3623C27.8996 64.4737 28.7672 65.3892 29.8485 65.9781C30.9298 66.567 32.1695 66.7992 33.3907 66.6416C34.6118 66.484 35.7519 65.9446 36.6482 65.1004C43.2113 58.9042 43.0054 59.2135 43.6253 58.1693C44.5674 58.6329 45.6176 58.8324 46.6641 58.7465C47.7106 58.6607 48.7143 58.2927 49.5683 57.6818C50.4223 57.0708 51.0947 56.2398 51.5139 55.2771C51.9331 54.3144 52.0834 53.256 51.949 52.2146C52.8506 52.3836 53.7793 52.3368 54.6594 52.078C55.5394 51.8192 56.3457 51.3558 57.0123 50.7256C57.6789 50.0955 58.1869 49.3165 58.4947 48.4524C58.8025 47.5883 58.9015 46.6636 58.7834 45.7539C60.0011 45.9776 61.2583 45.8086 62.3737 45.2713C63.4891 44.7339 64.4048 43.8561 64.9888 42.7645C65.5729 41.6728 65.7949 40.4239 65.6229 39.1978C65.4509 37.9718 64.8938 36.8321 64.032 35.9433C71.3138 28.2751 71.3242 16.2495 64.0562 8.56866ZM10.695 42.78C10.0497 42.0944 9.70256 41.1808 9.72972 40.2396C9.75688 39.2984 10.1561 38.4064 10.8399 37.7591L16.8199 32.1126C17.507 31.478 18.4167 31.14 19.3515 31.1722C20.2863 31.2043 21.1706 31.604 21.8125 32.2843C22.4543 32.9646 22.8019 33.8707 22.7796 34.8058C22.7574 35.7409 22.3671 36.6294 21.6936 37.2784L15.7136 42.9249C15.0285 43.5704 14.1152 43.9176 13.1743 43.8905C12.2334 43.8633 11.3417 43.4639 10.695 42.78ZM17.1477 49.6179C16.5018 48.9325 16.1543 48.0189 16.1814 47.0775C16.2086 46.1361 16.6082 45.244 17.2926 44.597L23.2726 38.9505C23.6117 38.6306 24.0105 38.3806 24.4462 38.2148C24.882 38.049 25.3461 37.9706 25.8121 37.9842C26.2781 37.9977 26.7369 38.1029 27.1623 38.2938C27.5876 38.4847 27.9712 38.7575 28.2912 39.0966C28.6111 39.4357 28.8611 39.8345 29.0269 40.2702C29.1927 40.706 29.2711 41.1701 29.2575 41.6361C29.244 42.1021 29.1387 42.5609 28.9479 42.9863C28.757 43.4116 28.4842 43.7952 28.1451 44.1152L22.1651 49.7628C21.4791 50.4069 20.5658 50.7527 19.6252 50.7245C18.6847 50.6963 17.7937 50.2963 17.1477 49.6122V49.6179ZM23.5992 56.4547C22.9541 55.7691 22.6072 54.8556 22.6345 53.9146C22.6619 52.9736 23.0613 52.0819 23.7452 51.4349L29.7252 45.7884C30.4158 45.1821 31.3146 44.8673 32.2326 44.91C33.1505 44.9528 34.0161 45.3499 34.6474 46.0177C35.2786 46.6856 35.6263 47.5722 35.6172 48.4912C35.6082 49.4101 35.2431 50.2897 34.5989 50.945L28.6189 56.5915C27.9343 57.2382 27.0209 57.5865 26.0795 57.5597C25.1381 57.533 24.2459 57.1334 23.5992 56.4489V56.4547ZM35.0704 63.4375C34.3855 64.0838 33.472 64.4315 32.5307 64.4042C31.5894 64.377 30.6975 63.9769 30.0512 63.292C29.4049 62.6071 29.0572 61.6936 29.0845 60.7523C29.1117 59.811 29.5118 58.9191 30.1967 58.2728L36.1767 52.6252C36.8638 51.9905 37.7735 51.6526 38.7083 51.6847C39.6431 51.7169 40.5274 52.1165 41.1693 52.7969C41.8111 53.4772 42.1587 54.3833 42.1364 55.3184C42.1142 56.2534 41.7239 57.1419 41.0504 57.791L35.0704 63.4375ZM62.2714 42.6029C61.9329 42.9239 61.5344 43.1748 61.0987 43.3413C60.663 43.5078 60.1987 43.5866 59.7325 43.5731C59.2663 43.5597 58.8073 43.4542 58.382 43.2629C57.9566 43.0715 57.5732 42.798 57.2539 42.458L41.929 26.22C41.7196 25.9981 41.4307 25.8685 41.1257 25.8597C40.8208 25.8508 40.5248 25.9635 40.3029 26.1729C40.081 26.3822 39.9514 26.6712 39.9426 26.9761C39.9337 27.2811 40.0464 27.5771 40.2557 27.799L55.5841 44.0358C56.2305 44.7205 56.5785 45.634 56.5514 46.5753C56.5244 47.5166 56.1245 48.4086 55.4398 49.055C54.7551 49.7014 53.8416 50.0494 52.9003 50.0223C51.959 49.9953 51.067 49.5954 50.4206 48.9107L35.0934 32.6715C34.9897 32.5616 34.8654 32.4733 34.7276 32.4114C34.5898 32.3496 34.4411 32.3155 34.2901 32.3112C34.1391 32.3068 33.9887 32.3322 33.8476 32.3859C33.7064 32.4397 33.5772 32.5207 33.4673 32.6244C33.3574 32.728 33.2691 32.8523 33.2072 32.9902C33.1454 33.128 33.1113 33.2767 33.107 33.4276C33.1026 33.5786 33.128 33.729 33.1817 33.8702C33.2355 34.0114 33.3165 34.1406 33.4202 34.2505L48.7428 50.485C49.3281 51.1047 49.6706 51.9145 49.7077 52.7661C49.7447 53.6177 49.4739 54.4542 48.9446 55.1224C48.4153 55.7906 47.6631 56.2458 46.8257 56.4047C45.9882 56.5636 45.1215 56.4156 44.3843 55.9878C44.5022 55.1756 44.4466 54.3476 44.2212 53.5585C43.9957 52.7694 43.6055 52.0371 43.0762 51.4098C42.547 50.7826 41.8908 50.2747 41.1509 49.9196C40.411 49.5645 39.6042 49.3704 38.7838 49.35C37.5188 49.3166 37.9788 49.795 38.011 48.53C38.0336 47.7619 37.9047 46.9968 37.6315 46.2786C37.3583 45.5603 36.9463 44.903 36.4189 44.3441C35.8915 43.7852 35.2591 43.3357 34.5579 43.0214C33.8567 42.707 33.1004 42.5339 32.3323 42.5121C31.0673 42.4718 31.5215 42.9721 31.5595 41.6921C31.5818 40.924 31.4526 40.159 31.1793 39.4408C30.9059 38.7226 30.4937 38.0653 29.9663 37.5064C29.4388 36.9476 28.8064 36.4981 28.1052 36.1837C27.404 35.8694 26.6477 35.6962 25.8796 35.6742C24.6066 35.6385 25.0689 36.1445 25.1068 34.8542C25.1372 33.6989 24.825 32.5604 24.2097 31.5821C23.5943 30.6037 22.7033 29.8293 21.6488 29.3564C20.5943 28.8834 19.4234 28.733 18.2836 28.924C17.1437 29.1151 16.0859 29.6392 15.2433 30.4302C7.02075 38.1915 9.8578 35.5166 9.24485 36.0951L7.61415 34.3701C0.9269 27.2769 1.2558 16.1058 8.35015 9.41736C15.4434 2.73011 26.6145 3.06016 33.3017 10.1545L23.8832 19.0486C22.9901 19.905 22.4644 21.0747 22.417 22.3112C22.302 27.0342 29.3273 30.0081 33.6203 25.9452L42.2038 17.8446C42.3136 17.7408 42.4428 17.6596 42.5839 17.6058C42.7251 17.5519 42.8754 17.5264 43.0264 17.5307C43.1774 17.5349 43.3261 17.5689 43.464 17.6307C43.6019 17.6924 43.7262 17.7807 43.83 17.8906L62.4163 37.5855C62.7364 37.9244 62.9866 38.3232 63.1527 38.7589C63.3187 39.1946 63.3972 39.6587 63.3837 40.1248C63.3703 40.5909 63.2651 41.0497 63.0742 41.4751C62.8834 41.9005 62.6105 42.283 62.2714 42.6029ZM62.468 34.2884L45.5021 16.3105C45.191 15.981 44.8182 15.716 44.4047 15.5307C43.9913 15.3453 43.5454 15.2432 43.0925 15.2302C42.6396 15.2172 42.1886 15.2935 41.7652 15.4547C41.3418 15.616 40.9543 15.8591 40.6249 16.1702L32.0402 24.2731C31.5887 24.6992 31.0576 25.0319 30.4773 25.2523C29.897 25.4726 29.2788 25.5762 28.6584 25.5571C28.0379 25.538 27.4273 25.3965 26.8617 25.1408C26.296 24.8852 25.7864 24.5203 25.3621 24.0672C25.1485 23.8407 24.9816 23.5743 24.8711 23.2833C24.7606 22.9922 24.7087 22.6822 24.7182 22.371C24.7277 22.0598 24.7985 21.7536 24.9265 21.4698C25.0546 21.186 25.2374 20.9303 25.4645 20.7173L37.4245 9.42081C44.3509 2.86351 55.2334 2.99346 62.0011 9.71406C68.77 16.4347 68.9759 27.316 62.468 34.2884Z" fill="white"/>
</g>
<defs>
<clipPath id="clip0_692_24083">
<rect width="69" height="69" fill="white" transform="translate(0.5)"/>
</clipPath>
</defs>
</svg>
