<svg width="21" height="21" viewBox="0 0 21 21" fill="none" xmlns="http://www.w3.org/2000/svg">
<path d="M13.8629 4.28657L14.0175 4.3732C14.6754 4.96059 14.6634 5.93595 14.4921 6.73208C14.2645 7.57373 13.7416 8.29096 13.335 9.05286C14.1665 10.6836 14.9999 12.3155 15.8374 13.9445C16.012 14.2661 16.1195 14.6246 16.08 14.9932L15.1138 16.7166C14.6069 16.7357 14.3088 16.309 13.9971 15.98C13.0684 14.94 12.1259 13.9154 11.1897 12.8841C10.8226 13.5344 10.4594 14.1869 10.0961 14.8394C10.3761 15.5003 10.7337 16.1327 10.933 16.8229C10.782 17.4041 10.4018 17.8851 10.0056 18.3212L9.76694 18.1874C8.95401 17.4591 8.27891 16.5767 7.41719 15.9034C6.40926 15.5825 5.35625 15.4293 4.3386 15.1441L4.08039 14.9994C4.2555 14.4394 4.46333 13.8669 4.87342 13.4335C5.56946 13.2375 6.29947 13.2148 7.01238 13.108C7.37756 12.4566 7.74361 11.8083 8.10684 11.1558C6.62436 10.8697 5.14165 10.5887 3.65698 10.3065C3.30777 10.2599 2.98726 10.1162 2.78344 9.81937L3.76275 8.07252C4.06394 7.86087 4.42308 7.76141 4.78734 7.74452C6.61212 7.60802 8.43604 7.46846 10.2591 7.32586C10.6961 6.57846 11.0334 5.75204 11.6425 5.12423C12.2269 4.57257 13.0279 4.08839 13.8629 4.28657Z" fill="#7B7B7B"/>
</svg>
