<svg width="16" height="16" viewBox="0 0 16 16" fill="none" xmlns="http://www.w3.org/2000/svg">
<path fill-rule="evenodd" clip-rule="evenodd" d="M15.5959 4.37766C15.5959 9.99057 12.5306 14.3086 8.85864 15.8382C8.33908 16.054 7.75402 16.054 7.23353 15.8378C3.42726 14.2513 0.5 9.74281 0.5 4.37766C0.5 3.52284 1.01537 2.75165 1.80295 2.42607L7.23754 0.161655C7.75729 -0.0539602 8.34147 -0.0539602 8.86231 0.162107L14.2956 2.42596C15.0819 2.75303 15.5959 3.52414 15.5959 4.37766ZM13.7148 3.82215L8.28179 1.55841C8.133 1.49669 7.96576 1.49669 7.81806 1.55796L2.38262 3.82273C2.15882 3.91525 2.01218 4.13468 2.01218 4.37766C2.01218 9.13948 4.57923 13.0932 7.81439 14.4417C7.9627 14.5033 8.13041 14.5033 8.27793 14.442C11.4009 13.1411 14.0838 9.36182 14.0838 4.37766C14.0838 4.13469 13.937 3.91454 13.7148 3.82215ZM11.5632 5.96062L7.39793 10.1259C7.25647 10.2673 7.02715 10.2673 6.88569 10.1259L4.5314 7.77159C4.38996 7.63015 4.38996 7.40081 4.5314 7.25937L5.04362 6.74716C5.18508 6.60572 5.41442 6.60572 5.55586 6.74716L7.14181 8.33311L10.5388 4.93619C10.6802 4.79473 10.9096 4.79473 11.051 4.93619L11.5632 5.4484C11.7046 5.58984 11.7046 5.81918 11.5632 5.96062Z" fill="white" fill-opacity="0.01"/>
<mask id="mask0_511_49057" style="mask-type:luminance" maskUnits="userSpaceOnUse" x="0" y="0" width="16" height="16">
<path fill-rule="evenodd" clip-rule="evenodd" d="M15.5959 4.37766C15.5959 9.99057 12.5306 14.3086 8.85864 15.8382C8.33908 16.054 7.75402 16.054 7.23353 15.8378C3.42726 14.2513 0.5 9.74281 0.5 4.37766C0.5 3.52284 1.01537 2.75165 1.80295 2.42607L7.23754 0.161655C7.75729 -0.0539602 8.34147 -0.0539602 8.86231 0.162107L14.2956 2.42596C15.0819 2.75303 15.5959 3.52414 15.5959 4.37766ZM13.7148 3.82215L8.28179 1.55841C8.133 1.49669 7.96576 1.49669 7.81806 1.55796L2.38262 3.82273C2.15882 3.91525 2.01218 4.13468 2.01218 4.37766C2.01218 9.13948 4.57923 13.0932 7.81439 14.4417C7.9627 14.5033 8.13041 14.5033 8.27793 14.442C11.4009 13.1411 14.0838 9.36182 14.0838 4.37766C14.0838 4.13469 13.937 3.91454 13.7148 3.82215ZM11.5632 5.96062L7.39793 10.1259C7.25647 10.2673 7.02715 10.2673 6.88569 10.1259L4.5314 7.77159C4.38996 7.63015 4.38996 7.40081 4.5314 7.25937L5.04362 6.74716C5.18508 6.60572 5.41442 6.60572 5.55586 6.74716L7.14181 8.33311L10.5388 4.93619C10.6802 4.79473 10.9096 4.79473 11.051 4.93619L11.5632 5.4484C11.7046 5.58984 11.7046 5.81918 11.5632 5.96062Z" fill="white"/>
</mask>
<g mask="url(#mask0_511_49057)">
<rect width="16" height="16" fill="#7F8FA4"/>
</g>
</svg>
