<svg width="70" height="69" viewBox="0 0 70 69" fill="none" xmlns="http://www.w3.org/2000/svg">
<g id="police">
<path id="Vector" d="M20.625 34.5C20.625 30.6875 22.1395 27.0312 24.8353 24.3353C27.5312 21.6395 31.1875 20.125 35 20.125C38.8125 20.125 42.4688 21.6395 45.1647 24.3353C47.8605 27.0312 49.375 30.6875 49.375 34.5V51.75H20.625V34.5Z" stroke="white" stroke-width="3" stroke-linecap="round" stroke-linejoin="round"/>
<path id="Vector_2" d="M14.875 57.5C14.875 55.975 15.4808 54.5125 16.5591 53.4341C17.6375 52.3558 19.1 51.75 20.625 51.75H49.375C50.9 51.75 52.3625 52.3558 53.4409 53.4341C54.5192 54.5125 55.125 55.975 55.125 57.5V63.25H14.875V57.5Z" stroke="white" stroke-width="3" stroke-linecap="round" stroke-linejoin="round"/>
<path id="Vector_3" d="M60.875 34.5H63.75" stroke="white" stroke-width="3" stroke-linecap="round" stroke-linejoin="round"/>
<path id="Vector_4" d="M53.6875 12.9375L52.25 14.375" stroke="white" stroke-width="3" stroke-linecap="round" stroke-linejoin="round"/>
<path id="Vector_5" d="M6.25 34.5H9.125" stroke="white" stroke-width="3" stroke-linecap="round" stroke-linejoin="round"/>
<path id="Vector_6" d="M35 5.75V8.625" stroke="white" stroke-width="3" stroke-linecap="round" stroke-linejoin="round"/>
<path id="Vector_7" d="M14.6719 14.1709L16.7045 16.2035" stroke="white" stroke-width="3" stroke-linecap="round" stroke-linejoin="round"/>
<path id="Vector_8" d="M35 34.5V51.75" stroke="white" stroke-width="3" stroke-linecap="round" stroke-linejoin="round"/>
</g>
</svg>
