<svg width="68" height="69" viewBox="0 0 68 69" fill="none" xmlns="http://www.w3.org/2000/svg">
<g id="restaurant">
<g id="Vector">
<path d="M48.875 60.375L20.125 60.375L48.875 60.375Z" fill="white"/>
<path d="M48.875 60.375L20.125 60.375" stroke="white" stroke-width="3" stroke-linecap="round" stroke-linejoin="round"/>
</g>
<path id="Vector_2" d="M34.5 60.375C27.6375 60.375 21.0561 57.6489 16.2036 52.7964C11.3511 47.9439 8.625 41.3625 8.625 34.5L60.375 34.5C60.375 41.3625 57.6489 47.9439 52.7964 52.7964C47.9439 57.6489 41.3625 60.375 34.5 60.375Z" stroke="white" stroke-width="3" stroke-linecap="round" stroke-linejoin="round"/>
<path id="Vector_3" d="M36.2818 34.5C38.023 34.5162 39.7059 33.8735 40.9931 32.7008C42.2803 31.5281 43.0764 29.9121 43.2219 28.1769C43.3675 26.4417 42.8515 24.7157 41.7777 23.3449C40.7038 21.9742 39.1514 21.0602 37.4318 20.7862C37.7071 19.5679 37.6465 18.2977 37.2565 17.111C36.8666 15.9244 36.1618 14.8659 35.2174 14.0484C34.273 13.2309 33.1244 12.6851 31.8941 12.4692C30.6639 12.2533 29.3981 12.3754 28.2318 12.8225C27.7211 12.0185 27.0495 11.329 26.2592 10.7973C25.469 10.2657 24.5772 9.90335 23.6401 9.73321C22.703 9.56307 21.7408 9.58879 20.8141 9.80874C19.8874 10.0287 19.0162 10.4381 18.2555 11.0112C16.9285 9.96826 15.2653 9.44783 13.5805 9.54843C11.8956 9.64902 10.3061 10.3637 9.11265 11.5571C7.91919 12.7506 7.20455 14.3401 7.10396 16.0249C7.00336 17.7097 7.52379 19.373 8.56677 20.7C7.9176 21.5623 7.47977 22.5649 7.28848 23.6271C7.09719 24.6894 7.15777 25.7817 7.46535 26.8163C7.77293 27.8509 8.31894 28.7989 9.05948 29.5841C9.80002 30.3693 10.7145 30.9699 11.7293 31.3375C11.467 32.3723 11.4375 33.4524 11.643 34.5" stroke="white" stroke-width="3" stroke-linecap="round" stroke-linejoin="round"/>
<path id="Vector_4" d="M31.625 34.5L20.125 23" stroke="white" stroke-width="3" stroke-linecap="round" stroke-linejoin="round"/>
<path id="Vector_5" d="M37.6624 20.8437C39.2393 19.1626 41.2861 17.9956 43.536 17.4947C45.7859 16.9938 48.1346 17.1824 50.2757 18.0358C52.4169 18.8891 54.2514 20.3678 55.54 22.2789C56.8286 24.19 57.5115 26.445 57.4999 28.75C57.4999 30.8487 56.9249 32.8037 55.9474 34.5" stroke="white" stroke-width="3" stroke-linecap="round" stroke-linejoin="round"/>
</g>
</svg>
