<svg width="70" height="69" viewBox="0 0 70 69" fill="none" xmlns="http://www.w3.org/2000/svg">
<g id="Vacation" clip-path="url(#clip0_518_51663)">
<g id="Group">
<g id="Layer 2">
<g id="Layer 1">
<mask id="path-1-inside-1_518_51663" fill="white">
<path d="M63.41 25.3273L54.1947 15.0249C54.0855 14.9079 53.9514 14.8169 53.8024 14.7586C53.6534 14.7003 53.4931 14.6762 53.3335 14.6881C53.1739 14.7 53.019 14.7475 52.8803 14.8273C52.7415 14.907 52.6224 15.0169 52.5318 15.1489L47.1328 23.2384C42.4766 21.2998 37.5884 19.9745 32.5907 19.2956L31.8729 12.51L49.8 10.6148C50.8328 10.5322 51.091 8.99068 50.0944 8.59821L30.0293 0.0955357C30.0293 0.0955357 30.0293 0.0645511 30.0138 0.0645511H29.9854C29.9054 0.0309845 29.846 0.0309845 29.7659 0H29.4871C29.3976 0.00427493 29.3098 0.0262133 29.2289 0.0645511C29.1824 0.0645511 29.1669 0.0955357 29.1359 0.0955357C28.9939 0.180743 11.2991 12.6262 11.1442 12.7269C10.3309 13.2614 10.7388 14.666 11.7484 14.6195C11.8724 14.6505 24.3798 13.2795 24.5063 13.2846L29.7814 12.7269L30.4657 19.0891C22.1153 18.3144 14.5732 19.6055 12.3242 23.6799C5.73742 33.3342 3.98679 46.043 9.96681 55.5605C14.7281 63.7739 25.2887 69.1214 35.1211 68.9871C52.3098 69.2298 63.3041 53.8047 62.0157 36.9568L62.0002 36.9232C61.8117 32.5802 56.7999 27.7079 49.0745 24.075L53.5259 17.403L61.8453 26.7113C62.7387 27.7286 64.324 26.3627 63.41 25.3273ZM29.8072 3.07263L35.0901 10.07L26.1201 11.0202L29.8072 3.07263ZM37.5276 9.81177L32.7921 3.53998L45.5655 8.96228L37.5276 9.81177ZM27.0031 4.13127L23.6981 11.268L15.6602 12.1356L27.0031 4.13127ZM39.6991 22.8769C41.8224 23.4717 43.9103 24.1864 45.9528 25.0174L44.1815 27.6563C40.6264 26.2565 36.9334 25.2361 33.1639 24.6121L32.8205 21.4465C35.1402 21.7826 37.4373 22.2594 39.6991 22.8743V22.8769ZM38.3641 36.381C37.0525 36.1951 35.6866 35.4437 34.331 35.7897L33.3834 26.7526C36.6727 27.3282 39.8958 28.2331 43.0041 29.4534L38.3641 36.381ZM44.9742 30.2332C47.298 31.1498 52.7745 34.3825 52.364 36.0376C52.2401 36.474 51.3854 37.0704 49.3817 37.3415C48.1527 37.4965 46.6215 38.6171 45.3925 38.6145C45.2685 38.6145 44.9303 38.3356 44.7108 38.1471C43.7348 37.1427 41.9558 37.0808 40.5795 36.8561L44.9742 30.2332ZM32.2524 35.9137C31.4985 35.2372 30.8943 34.1062 29.9286 33.7396C23.5897 31.0982 21.0283 28.4619 21.2865 27.4704C21.7099 25.9212 28.555 25.9212 31.2351 26.4143L32.2524 35.9137ZM46.7119 64.1277C23.52 74.9361 -1.16181 52.4465 12.0273 28.3044C12.523 29.7968 13.5507 31.3512 15.1025 32.9004C15.9649 34.0856 16.848 37.0859 18.0202 37.8373C19.6314 39.0638 21.1367 37.6307 22.4278 38.1781C24.4199 39.2358 26.4708 40.1789 28.5704 41.0029C29.4122 41.8937 30.1868 44.1581 31.4107 44.4757C32.8153 44.8708 33.5486 43.5565 34.3749 42.8929C36.5645 43.492 38.8083 43.3913 40.9694 43.7321C41.6537 43.8251 42.3973 44.7236 43.128 45.5963C45.5035 48.7981 47.4891 48.669 50.2777 45.9062C50.8535 45.3898 51.8011 44.5403 52.1574 44.5403C55.4779 44.6952 58.1478 43.5075 59.87 41.8395C59.431 51.1555 54.551 60.11 46.7119 64.1251V64.1277ZM59.7977 38.0852C59.1754 40.3186 56.3197 42.6141 52.2401 42.4308C51.0601 42.3972 49.9885 43.3293 48.8834 44.3518C48.1398 45.0051 47.1302 45.901 46.6009 45.901C44.8683 45.3175 43.6728 41.8756 41.2147 41.6406C39.0794 41.3282 36.8252 41.4083 34.7338 40.8325C33.528 40.5175 32.6681 41.6071 31.9529 42.3326C31.2041 41.2998 30.4915 39.4666 29.407 39.0715C27.3558 38.2973 25.364 37.3739 23.4477 36.3087C22.3167 35.7174 21.2297 35.9369 20.4551 36.1228C19.7398 36.2777 19.492 36.3087 19.2751 36.1538C18.3843 35.3043 17.496 32.2601 16.6052 31.4054C8.48471 22.8847 19.3061 20.0444 30.6955 21.1624L31.0363 24.2996C14.2117 22.3838 17.039 31.124 29.1437 35.6606C29.9777 36.2545 30.6929 37.7263 31.8445 38.0826C33.0916 38.5448 34.3594 37.6953 35.4593 37.8037C36.5128 38.1058 37.5431 38.3485 38.5785 38.5783C39.9314 38.8572 41.2664 39.0947 42.5677 39.2626C43.4559 39.5724 44.1169 40.675 45.315 40.6879C46.8384 40.7937 48.3567 39.7274 49.6761 39.4175C52.3924 39.0431 53.9752 38.0826 54.3909 36.5928C55.4779 33.8455 50.0453 30.0498 46.1697 28.4903L47.9203 25.8514C56.2396 29.6935 60.7247 34.7311 59.7977 38.0852Z"/>
</mask>
<path d="M63.41 25.3273L54.1947 15.0249C54.0855 14.9079 53.9514 14.8169 53.8024 14.7586C53.6534 14.7003 53.4931 14.6762 53.3335 14.6881C53.1739 14.7 53.019 14.7475 52.8803 14.8273C52.7415 14.907 52.6224 15.0169 52.5318 15.1489L47.1328 23.2384C42.4766 21.2998 37.5884 19.9745 32.5907 19.2956L31.8729 12.51L49.8 10.6148C50.8328 10.5322 51.091 8.99068 50.0944 8.59821L30.0293 0.0955357C30.0293 0.0955357 30.0293 0.0645511 30.0138 0.0645511H29.9854C29.9054 0.0309845 29.846 0.0309845 29.7659 0H29.4871C29.3976 0.00427493 29.3098 0.0262133 29.2289 0.0645511C29.1824 0.0645511 29.1669 0.0955357 29.1359 0.0955357C28.9939 0.180743 11.2991 12.6262 11.1442 12.7269C10.3309 13.2614 10.7388 14.666 11.7484 14.6195C11.8724 14.6505 24.3798 13.2795 24.5063 13.2846L29.7814 12.7269L30.4657 19.0891C22.1153 18.3144 14.5732 19.6055 12.3242 23.6799C5.73742 33.3342 3.98679 46.043 9.96681 55.5605C14.7281 63.7739 25.2887 69.1214 35.1211 68.9871C52.3098 69.2298 63.3041 53.8047 62.0157 36.9568L62.0002 36.9232C61.8117 32.5802 56.7999 27.7079 49.0745 24.075L53.5259 17.403L61.8453 26.7113C62.7387 27.7286 64.324 26.3627 63.41 25.3273ZM29.8072 3.07263L35.0901 10.07L26.1201 11.0202L29.8072 3.07263ZM37.5276 9.81177L32.7921 3.53998L45.5655 8.96228L37.5276 9.81177ZM27.0031 4.13127L23.6981 11.268L15.6602 12.1356L27.0031 4.13127ZM39.6991 22.8769C41.8224 23.4717 43.9103 24.1864 45.9528 25.0174L44.1815 27.6563C40.6264 26.2565 36.9334 25.2361 33.1639 24.6121L32.8205 21.4465C35.1402 21.7826 37.4373 22.2594 39.6991 22.8743V22.8769ZM38.3641 36.381C37.0525 36.1951 35.6866 35.4437 34.331 35.7897L33.3834 26.7526C36.6727 27.3282 39.8958 28.2331 43.0041 29.4534L38.3641 36.381ZM44.9742 30.2332C47.298 31.1498 52.7745 34.3825 52.364 36.0376C52.2401 36.474 51.3854 37.0704 49.3817 37.3415C48.1527 37.4965 46.6215 38.6171 45.3925 38.6145C45.2685 38.6145 44.9303 38.3356 44.7108 38.1471C43.7348 37.1427 41.9558 37.0808 40.5795 36.8561L44.9742 30.2332ZM32.2524 35.9137C31.4985 35.2372 30.8943 34.1062 29.9286 33.7396C23.5897 31.0982 21.0283 28.4619 21.2865 27.4704C21.7099 25.9212 28.555 25.9212 31.2351 26.4143L32.2524 35.9137ZM46.7119 64.1277C23.52 74.9361 -1.16181 52.4465 12.0273 28.3044C12.523 29.7968 13.5507 31.3512 15.1025 32.9004C15.9649 34.0856 16.848 37.0859 18.0202 37.8373C19.6314 39.0638 21.1367 37.6307 22.4278 38.1781C24.4199 39.2358 26.4708 40.1789 28.5704 41.0029C29.4122 41.8937 30.1868 44.1581 31.4107 44.4757C32.8153 44.8708 33.5486 43.5565 34.3749 42.8929C36.5645 43.492 38.8083 43.3913 40.9694 43.7321C41.6537 43.8251 42.3973 44.7236 43.128 45.5963C45.5035 48.7981 47.4891 48.669 50.2777 45.9062C50.8535 45.3898 51.8011 44.5403 52.1574 44.5403C55.4779 44.6952 58.1478 43.5075 59.87 41.8395C59.431 51.1555 54.551 60.11 46.7119 64.1251V64.1277ZM59.7977 38.0852C59.1754 40.3186 56.3197 42.6141 52.2401 42.4308C51.0601 42.3972 49.9885 43.3293 48.8834 44.3518C48.1398 45.0051 47.1302 45.901 46.6009 45.901C44.8683 45.3175 43.6728 41.8756 41.2147 41.6406C39.0794 41.3282 36.8252 41.4083 34.7338 40.8325C33.528 40.5175 32.6681 41.6071 31.9529 42.3326C31.2041 41.2998 30.4915 39.4666 29.407 39.0715C27.3558 38.2973 25.364 37.3739 23.4477 36.3087C22.3167 35.7174 21.2297 35.9369 20.4551 36.1228C19.7398 36.2777 19.492 36.3087 19.2751 36.1538C18.3843 35.3043 17.496 32.2601 16.6052 31.4054C8.48471 22.8847 19.3061 20.0444 30.6955 21.1624L31.0363 24.2996C14.2117 22.3838 17.039 31.124 29.1437 35.6606C29.9777 36.2545 30.6929 37.7263 31.8445 38.0826C33.0916 38.5448 34.3594 37.6953 35.4593 37.8037C36.5128 38.1058 37.5431 38.3485 38.5785 38.5783C39.9314 38.8572 41.2664 39.0947 42.5677 39.2626C43.4559 39.5724 44.1169 40.675 45.315 40.6879C46.8384 40.7937 48.3567 39.7274 49.6761 39.4175C52.3924 39.0431 53.9752 38.0826 54.3909 36.5928C55.4779 33.8455 50.0453 30.0498 46.1697 28.4903L47.9203 25.8514C56.2396 29.6935 60.7247 34.7311 59.7977 38.0852Z" fill="white"/>
<path d="M63.41 25.3273L67.1584 22.0182L67.1475 22.006L67.1367 21.9938L63.41 25.3273ZM54.1947 15.0249L57.9213 11.6915L57.8865 11.6526L57.851 11.6144L54.1947 15.0249ZM52.5318 15.1489L48.4103 12.3181L48.3915 12.3455L48.373 12.3732L52.5318 15.1489ZM47.1328 23.2384L45.2109 27.8543L49.0082 29.4353L51.2916 26.0141L47.1328 23.2384ZM32.5907 19.2956L27.6184 19.8216L28.031 23.7222L31.9177 24.2501L32.5907 19.2956ZM31.8729 12.51L31.3472 7.53772L26.3746 8.06341L26.9006 13.036L31.8729 12.51ZM49.8 10.6148L49.4013 5.63071L49.3378 5.6358L49.2744 5.6425L49.8 10.6148ZM50.0944 8.59821L48.1435 13.2019L48.2026 13.227L48.2624 13.2505L50.0944 8.59821ZM30.0293 0.0955357L25.0293 0.0954087L25.0292 3.40712L28.0785 4.69925L30.0293 0.0955357ZM29.9854 0.0645511L28.0518 4.67552L28.9795 5.06455H29.9854V0.0645511ZM29.7659 0L31.5709 -4.66284L30.6999 -5H29.7659V0ZM29.4871 0V-5H29.3677L29.2485 -4.9943L29.4871 0ZM29.2289 0.0645511V5.06455H30.3528L31.3686 4.58357L29.2289 0.0645511ZM29.1359 0.0955357V-4.90446H27.751L26.5634 -4.19193L29.1359 0.0955357ZM11.1442 12.7269L8.41928 8.53468L8.40879 8.5415L8.39833 8.54838L11.1442 12.7269ZM11.7484 14.6195L12.9611 9.76883L12.2503 9.59114L11.5185 9.62483L11.7484 14.6195ZM24.5063 13.2846L24.3024 18.2805L24.6681 18.2954L25.032 18.2569L24.5063 13.2846ZM29.7814 12.7269L34.7528 12.1922L34.2191 7.22986L29.2557 7.75462L29.7814 12.7269ZM30.4657 19.0891L30.0038 24.0677L36.0907 24.6323L35.437 18.5544L30.4657 19.0891ZM12.3242 23.6799L16.4545 26.4979L16.5876 26.3028L16.7017 26.0961L12.3242 23.6799ZM9.96681 55.5605L14.2925 53.0529L14.2479 52.9758L14.2005 52.9003L9.96681 55.5605ZM35.1211 68.9871L35.1917 63.9876L35.1223 63.9866L35.0528 63.9876L35.1211 68.9871ZM62.0157 36.9568L67.0011 36.5756L66.9325 35.6783L66.5554 34.8613L62.0157 36.9568ZM62.0002 36.9232L57.0049 37.14L57.0476 38.1243L57.4605 39.0187L62.0002 36.9232ZM49.0745 24.075L44.9152 21.3L41.6932 26.1292L46.9467 28.5997L49.0745 24.075ZM53.5259 17.403L57.2539 14.071L52.9506 9.2562L49.3667 14.628L53.5259 17.403ZM61.8453 26.7113L65.6022 23.412L65.5878 23.3956L65.5733 23.3793L61.8453 26.7113ZM29.8072 3.07263L33.7977 0.0599274L28.7778 -6.5891L25.2716 0.968377L29.8072 3.07263ZM35.0901 10.07L35.6168 15.0422L44.4061 14.1111L39.0805 7.05727L35.0901 10.07ZM26.1201 11.0202L21.5844 8.91591L17.8701 16.9221L26.6468 15.9924L26.1201 11.0202ZM37.5276 9.81177L33.5372 12.8246L35.2411 15.0813L38.0531 14.7841L37.5276 9.81177ZM32.7921 3.53998L34.7458 -1.0625L17.5357 -8.36818L28.8018 6.55285L32.7921 3.53998ZM45.5655 8.96228L46.091 13.9346L65.2938 11.9051L47.5192 4.3598L45.5655 8.96228ZM27.0031 4.13127L31.5402 6.23239L39.3977 -10.7347L24.1203 0.0460212L27.0031 4.13127ZM23.6981 11.268L24.2347 16.2392L27.0467 15.9357L28.2352 13.3692L23.6981 11.268ZM15.6602 12.1356L12.7774 8.05036L-2.99126 19.1778L16.1968 17.1067L15.6602 12.1356ZM39.6991 22.8769H34.6991V26.6688L38.3503 27.6916L39.6991 22.8769ZM45.9528 25.0174L50.1043 27.804L53.5289 22.702L47.8372 20.3861L45.9528 25.0174ZM44.1815 27.6563L42.3497 32.3087L46.0917 33.782L48.333 30.4429L44.1815 27.6563ZM33.1639 24.6121L28.1931 25.1513L28.6024 28.9249L32.3472 29.5449L33.1639 24.6121ZM32.8205 21.4465L33.5375 16.4982L27.154 15.5731L27.8497 21.9857L32.8205 21.4465ZM39.6991 22.8743H44.6991V19.0522L41.0108 18.0495L39.6991 22.8743ZM38.3641 36.381L37.6625 41.3315L40.7712 41.7721L42.5184 39.1634L38.3641 36.381ZM34.331 35.7897L29.3582 36.3112L29.9616 42.0653L35.5675 40.6344L34.331 35.7897ZM33.3834 26.7526L34.2453 21.8274L27.7198 20.6854L28.4106 27.274L33.3834 26.7526ZM43.0041 29.4534L47.1584 32.2358L50.6176 27.071L44.8313 24.7992L43.0041 29.4534ZM44.9742 30.2332L46.8088 25.5819L43.045 24.0973L40.8079 27.4687L44.9742 30.2332ZM52.364 36.0376L57.1738 37.4037L57.1967 37.3229L57.2169 37.2414L52.364 36.0376ZM49.3817 37.3415L50.007 42.3023L50.0296 42.2994L50.0522 42.2964L49.3817 37.3415ZM45.3925 38.6145L45.403 33.6145H45.3925V38.6145ZM44.7108 38.1471L41.1249 41.6316L41.2821 41.7933L41.4532 41.9403L44.7108 38.1471ZM40.5795 36.8561L36.4133 34.0916L32.1322 40.5435L39.7741 41.7908L40.5795 36.8561ZM32.2524 35.9137L28.9133 39.6352L38.6115 48.3371L37.224 35.3812L32.2524 35.9137ZM29.9286 33.7396L28.0054 38.3549L28.0791 38.3856L28.1538 38.414L29.9286 33.7396ZM21.2865 27.4704L16.4634 26.1521L16.4555 26.1812L16.4479 26.2103L21.2865 27.4704ZM31.2351 26.4143L36.2067 25.8819L35.8094 22.1721L32.14 21.4969L31.2351 26.4143ZM46.7119 64.1277L48.824 68.6597L51.7119 67.3138V64.1277H46.7119ZM12.0273 28.3044L16.7723 26.7282L13.1493 15.8215L7.63938 25.9072L12.0273 28.3044ZM15.1025 32.9004L19.1454 29.9585L18.9137 29.6401L18.6351 29.3619L15.1025 32.9004ZM18.0202 37.8373L21.0487 33.8588L20.8882 33.7366L20.7184 33.6278L18.0202 37.8373ZM22.4278 38.1781L24.7724 33.7619L24.58 33.6598L24.3796 33.5748L22.4278 38.1781ZM28.5704 41.0029L32.2046 37.5688L31.4372 36.7567L30.397 36.3485L28.5704 41.0029ZM31.4107 44.4757L32.7644 39.6625L32.7156 39.6488L32.6666 39.636L31.4107 44.4757ZM34.3749 42.8929L35.6943 38.0702L33.2333 37.3969L31.244 38.9945L34.3749 42.8929ZM40.9694 43.7321L40.1905 48.6711L40.2434 48.6794L40.2964 48.6866L40.9694 43.7321ZM43.128 45.5963L47.1435 42.6171L47.056 42.4991L46.9617 42.3865L43.128 45.5963ZM50.2777 45.9062L46.9393 42.1839L46.8469 42.2668L46.7587 42.3542L50.2777 45.9062ZM52.1574 44.5403L52.3905 39.5457L52.274 39.5403H52.1574V44.5403ZM59.87 41.8395L64.8645 42.0748L65.4585 29.4662L56.3915 38.2478L59.87 41.8395ZM46.7119 64.1251L44.4325 59.6749L41.7119 61.0683V64.1251H46.7119ZM59.7977 38.0852L64.6143 39.4271L64.617 39.4171L59.7977 38.0852ZM52.2401 42.4308L52.4645 37.4358L52.4234 37.4339L52.3822 37.4328L52.2401 42.4308ZM48.8834 44.3518L52.1833 48.1082L52.2317 48.0657L52.2791 48.0219L48.8834 44.3518ZM46.6009 45.901L45.0049 50.6395L45.7815 50.901H46.6009V45.901ZM41.2147 41.6406L40.4909 46.588L40.6145 46.6061L40.7389 46.618L41.2147 41.6406ZM34.7338 40.8325L36.061 36.0118L36.0293 36.0031L35.9976 35.9948L34.7338 40.8325ZM31.9529 42.3326L27.9049 45.2675L31.3697 50.0466L35.5137 45.8427L31.9529 42.3326ZM29.407 39.0715L27.6414 43.7494L27.6685 43.7596L27.6956 43.7695L29.407 39.0715ZM23.4477 36.3087L25.8768 31.9385L25.821 31.9074L25.7643 31.8778L23.4477 36.3087ZM20.4551 36.1228L21.5136 41.0095L21.5679 40.9977L21.6219 40.9848L20.4551 36.1228ZM19.2751 36.1538L15.8244 39.7722L16.0807 40.0166L16.3689 40.2225L19.2751 36.1538ZM16.6052 31.4054L12.9857 34.8549L13.0629 34.9359L13.1437 35.0134L16.6052 31.4054ZM30.6955 21.1624L35.6662 20.6224L35.2274 16.5833L31.1839 16.1864L30.6955 21.1624ZM31.0363 24.2996L30.4706 29.2675L36.6823 29.9749L36.007 23.7596L31.0363 24.2996ZM29.1437 35.6606L32.0439 31.5877L31.511 31.2082L30.8984 30.9787L29.1437 35.6606ZM31.8445 38.0826L33.582 33.3942L33.4534 33.3465L33.3224 33.306L31.8445 38.0826ZM35.4593 37.8037L36.8376 32.9974L36.4015 32.8724L35.9499 32.8279L35.4593 37.8037ZM38.5785 38.5783L37.4951 43.4596L37.5321 43.4678L37.5691 43.4754L38.5785 38.5783ZM42.5677 39.2626L44.2146 34.5416L43.7233 34.3702L43.2073 34.3037L42.5677 39.2626ZM45.315 40.6879L45.6616 35.6999L45.5154 35.6897L45.3689 35.6882L45.315 40.6879ZM49.6761 39.4175L48.9934 34.4643L48.7612 34.4963L48.533 34.5499L49.6761 39.4175ZM54.3909 36.5928L49.7416 34.7531L49.6453 34.9967L49.5749 35.2489L54.3909 36.5928ZM46.1697 28.4903L42.0032 25.7262L38.6116 30.8386L44.3031 33.1288L46.1697 28.4903ZM47.9203 25.8514L50.0167 21.3121L46.1241 19.5144L43.7538 23.0874L47.9203 25.8514ZM67.1367 21.9938L57.9213 11.6915L50.468 18.3584L59.6833 28.6607L67.1367 21.9938ZM57.851 11.6144C57.2312 10.95 56.4701 10.4332 55.6239 10.1022L51.9809 19.415C51.4328 19.2006 50.9398 18.8658 50.5384 18.4354L57.851 11.6144ZM55.6239 10.1022C54.7777 9.77114 53.868 9.63435 52.9619 9.70189L53.7052 19.6742C53.1182 19.718 52.529 19.6294 51.9809 19.415L55.6239 10.1022ZM52.9619 9.70189C52.0558 9.76942 51.1764 10.0396 50.3886 10.4924L55.3719 19.1622C54.8617 19.4555 54.2921 19.6305 53.7052 19.6742L52.9619 9.70189ZM50.3886 10.4924C49.6008 10.9452 48.9248 11.5691 48.4103 12.3181L56.6533 17.9797C56.3201 18.4648 55.8822 18.8689 55.3719 19.1622L50.3886 10.4924ZM48.373 12.3732L42.9739 20.4628L51.2916 26.0141L56.6906 17.9245L48.373 12.3732ZM49.0546 18.6225C43.9986 16.5175 38.6905 15.0783 33.2637 14.3411L31.9177 24.2501C36.4862 24.8707 40.9547 26.0822 45.2109 27.8543L49.0546 18.6225ZM37.5629 18.7696L36.8451 11.984L26.9006 13.036L27.6184 19.8216L37.5629 18.7696ZM32.3985 17.4823L50.3257 15.5871L49.2744 5.6425L31.3472 7.53772L32.3985 17.4823ZM50.1987 15.5989C53.5397 15.3316 55.311 12.6668 55.649 10.49C55.9957 8.25779 55.0587 5.17939 51.9264 3.94592L48.2624 13.2505C46.1267 12.4095 45.559 10.2981 45.7675 8.95539C45.9674 7.66808 47.0931 5.81537 49.4013 5.63071L50.1987 15.5989ZM52.0452 3.9945L31.9801 -4.50818L28.0785 4.69925L48.1435 13.2019L52.0452 3.9945ZM30.0293 0.0955357C35.0293 0.0956627 35.0293 0.0944395 35.0293 0.0932161C35.0293 0.0928071 35.0293 0.0915789 35.0293 0.0907593C35.0293 0.089118 35.0293 0.0874697 35.0293 0.0858145C35.0293 0.0825043 35.0293 0.0791657 35.0293 0.0757991C35.0292 0.0690669 35.0292 0.0622171 35.0291 0.0552525C35.029 0.041332 35.0289 0.0269036 35.0286 0.0119929C35.0281 -0.0177442 35.0273 -0.0498659 35.0261 -0.0841266C35.0237 -0.151606 35.0194 -0.232696 35.0118 -0.324407C34.9984 -0.485688 34.9668 -0.777596 34.8781 -1.13252C34.807 -1.41683 34.6018 -2.15848 34.0228 -2.93054C33.3382 -3.8434 31.982 -4.93545 30.0138 -4.93545V5.06455C29.1385 5.06455 28.286 4.83443 27.5382 4.40708C26.8228 3.99829 26.3357 3.48661 26.0227 3.06933C25.448 2.30307 25.2458 1.56917 25.1766 1.29261C25.0898 0.945429 25.0593 0.661268 25.0463 0.505796C25.0389 0.41699 25.0348 0.33832 25.0324 0.272535C25.0313 0.239122 25.0305 0.207666 25.03 0.178383C25.0297 0.163699 25.0296 0.149444 25.0295 0.135641C25.0294 0.128735 25.0294 0.12193 25.0293 0.115227C25.0293 0.111876 25.0293 0.108548 25.0293 0.105246C25.0293 0.103594 25.0293 0.101949 25.0293 0.100309C25.0293 0.0994906 25.0293 0.098263 25.0293 0.0978545C25.0293 0.0966317 25.0293 0.0954087 30.0293 0.0955357ZM30.0138 -4.93545H29.9854V5.06455H30.0138V-4.93545ZM31.919 -4.54642C31.4582 -4.73966 31.0666 -4.82523 31.0032 -4.83989C30.9186 -4.85948 31.2272 -4.79589 31.5709 -4.66284L27.961 4.66284C28.0687 4.70456 28.171 4.74027 28.2667 4.77097C28.3619 4.80154 28.4471 4.82607 28.519 4.84548C28.5898 4.86459 28.6486 4.87901 28.6867 4.88812C28.7057 4.89267 28.7217 4.89638 28.7315 4.89866C28.7364 4.89981 28.7408 4.90081 28.7433 4.90141C28.7467 4.90219 28.7471 4.90228 28.7481 4.90251C28.7528 4.90358 28.7291 4.89816 28.6971 4.89022C28.6625 4.88164 28.6097 4.86804 28.5451 4.84944C28.4797 4.83061 28.4032 4.80695 28.3185 4.77757C28.2335 4.74809 28.1442 4.71429 28.0518 4.67552L31.919 -4.54642ZM29.7659 -5H29.4871V5H29.7659V-5ZM29.2485 -4.9943C28.5001 -4.95855 27.7663 -4.77509 27.0891 -4.45447L31.3686 4.58357C30.8534 4.82751 30.295 4.9671 29.7257 4.9943L29.2485 -4.9943ZM29.2289 -4.93545C28.942 -4.93545 28.6534 -4.91127 28.3663 -4.86194C28.079 -4.81259 27.8154 -4.7419 27.5775 -4.66033C27.3417 -4.57949 27.1454 -4.49282 26.9951 -4.41948C26.9206 -4.38313 26.8571 -4.34993 26.8073 -4.32307C26.7582 -4.29654 26.7189 -4.2743 26.6959 -4.26115C26.6842 -4.25451 26.6749 -4.24913 26.6701 -4.24635C26.6677 -4.24494 26.6657 -4.24378 26.665 -4.24339C26.6637 -4.24267 26.6646 -4.24319 26.6652 -4.2435C26.6661 -4.24403 26.6902 -4.25801 26.7212 -4.27539C26.7537 -4.29365 26.8061 -4.32255 26.8718 -4.35638C26.938 -4.39048 27.024 -4.43291 27.1263 -4.47835C27.3314 -4.56955 27.6151 -4.6789 27.9641 -4.76387C28.1389 -4.80643 28.3263 -4.84197 28.5252 -4.86667C28.7243 -4.89141 28.9283 -4.90446 29.1359 -4.90446V5.09554C29.3474 5.09554 29.5552 5.08224 29.7579 5.05705C29.9605 5.03189 30.1514 4.99569 30.3297 4.95228C30.6857 4.86562 30.976 4.75384 31.1877 4.65974C31.2932 4.61285 31.3825 4.56884 31.4519 4.53308C31.5208 4.49759 31.5764 4.46693 31.6122 4.44685C31.6465 4.42766 31.6738 4.4118 31.678 4.40936C31.6788 4.40886 31.6795 4.40845 31.68 4.40821C31.6802 4.40808 31.6804 4.40797 31.6805 4.40792C31.6806 4.40784 31.6806 4.40783 31.6806 4.40782C31.6808 4.40773 31.6796 4.40841 31.678 4.40934C31.6749 4.41115 31.6672 4.41556 31.6573 4.42124C31.6377 4.43245 31.6018 4.45276 31.5562 4.47737C31.51 4.50233 31.4501 4.53366 31.3793 4.56818C31.2364 4.6379 31.048 4.72118 30.8207 4.79912C30.5913 4.87778 30.3367 4.94605 30.0593 4.99371C29.782 5.04134 29.5041 5.06455 29.2289 5.06455V-4.93545ZM26.5634 -4.19193C26.481 -4.14248 26.4173 -4.10088 26.4053 -4.09306C26.3812 -4.07735 26.3617 -4.06436 26.3507 -4.05703C26.3283 -4.04203 26.3091 -4.02893 26.298 -4.02136C26.2742 -4.00513 26.2492 -3.98787 26.2273 -3.97276C26.1819 -3.9413 26.122 -3.89967 26.0518 -3.85072C25.9101 -3.75187 25.7093 -3.61142 25.4598 -3.4366C24.9598 -3.08639 24.2546 -2.59163 23.4137 -2.00127C21.7314 -0.820227 19.5005 0.74719 17.2702 2.31444C12.7121 5.51741 8.39567 8.55003 8.41928 8.53468L13.8692 16.9191C14.0477 16.8031 18.6561 13.5626 23.0196 10.4964C25.2501 8.92903 27.4792 7.36281 29.1595 6.18321C29.9998 5.59326 30.7015 5.10095 31.1971 4.75385C31.4452 4.58001 31.6393 4.44424 31.7725 4.35137C32.0577 4.15246 31.8945 4.27133 31.7084 4.383L26.5634 -4.19193ZM8.39833 8.54838C5.72723 10.3037 5.35906 13.3263 5.98286 15.3584C6.6263 17.4545 8.71326 19.7646 11.9784 19.6143L11.5185 9.62483C13.774 9.521 15.1522 11.152 15.5426 12.4238C15.9133 13.6316 15.7479 15.6846 13.8901 16.9054L8.39833 8.54838ZM10.5357 19.4703C10.9024 19.5619 11.1972 19.5901 11.2967 19.5992C11.4331 19.6116 11.5433 19.616 11.6073 19.6179C11.7353 19.6216 11.8372 19.6196 11.8835 19.6185C11.9838 19.6161 12.0667 19.6112 12.1036 19.6089C12.1884 19.6037 12.272 19.5969 12.3327 19.5918C12.4635 19.5807 12.6295 19.5651 12.812 19.5473C13.1831 19.5111 13.6957 19.4587 14.2941 19.3964C15.4942 19.2715 17.0798 19.1025 18.6589 18.9333C20.2426 18.7637 21.8157 18.5944 23.0079 18.4671C23.6036 18.4035 24.0976 18.3511 24.4452 18.3148C24.6203 18.2966 24.7506 18.2832 24.8357 18.2748C24.8563 18.2728 24.8725 18.2712 24.8849 18.27C24.8978 18.2688 24.9032 18.2683 24.9031 18.2683C24.9028 18.2683 24.8992 18.2687 24.8929 18.2692C24.8873 18.2697 24.8744 18.2707 24.8567 18.272C24.8428 18.273 24.8048 18.2758 24.7546 18.2783C24.7296 18.2796 24.6849 18.2817 24.6286 18.2831C24.5892 18.2841 24.4636 18.287 24.3024 18.2805L24.7102 8.28878C24.5481 8.28217 24.421 8.28515 24.3799 8.28617C24.3219 8.28762 24.275 8.28979 24.2475 8.29119C24.1924 8.29399 24.1479 8.29714 24.1261 8.29874C24.0794 8.30216 24.0383 8.30576 24.0148 8.30785C23.9632 8.31246 23.9055 8.31803 23.8514 8.32338C23.7393 8.33447 23.5878 8.35003 23.4085 8.36872C23.0474 8.40635 22.5426 8.45994 21.946 8.52365C20.7536 8.65099 19.1684 8.82157 17.5939 8.9902C16.0148 9.15933 14.4424 9.32693 13.2586 9.45019C12.665 9.51198 12.1791 9.56159 11.842 9.59445C11.6704 9.61117 11.5549 9.62184 11.4887 9.62744C11.451 9.63063 11.4573 9.62979 11.4875 9.62792C11.4971 9.62733 11.5584 9.62346 11.6429 9.62142C11.6814 9.6205 11.7768 9.61855 11.8999 9.62215C11.9614 9.62395 12.0695 9.6282 12.2041 9.64047C12.3019 9.64938 12.5954 9.67742 12.9611 9.76883L10.5357 19.4703ZM25.032 18.2569L30.3071 17.6992L29.2557 7.75462L23.9806 8.31234L25.032 18.2569ZM24.8101 13.2616L25.4943 19.6237L35.437 18.5544L34.7528 12.1922L24.8101 13.2616ZM30.9275 14.1104C26.4193 13.6922 21.8799 13.8016 17.9908 14.6923C14.2885 15.5401 10.1041 17.3553 7.94677 21.2637L16.7017 26.0961C16.7933 25.9301 17.5045 25.0625 20.2231 24.4399C22.7548 23.8601 26.1617 23.7113 30.0038 24.0677L30.9275 14.1104ZM8.19394 20.862C0.832073 31.6523 -1.597 46.5544 5.73315 58.2206L14.2005 52.9003C9.57057 45.5317 10.6428 35.0161 16.4545 26.4979L8.19394 20.862ZM5.64107 58.068C11.4292 68.0529 23.8028 74.1421 35.1894 73.9866L35.0528 63.9876C26.7745 64.1006 18.027 59.495 14.2925 53.0529L5.64107 58.068ZM35.0505 73.9866C55.9444 74.2816 68.4509 55.5326 67.0011 36.5756L57.0302 37.3381C58.1574 52.0767 48.6751 64.178 35.1917 63.9876L35.0505 73.9866ZM66.5554 34.8613L66.5399 34.8278L57.4605 39.0187L57.476 39.0523L66.5554 34.8613ZM66.9955 36.7064C66.8231 32.7355 64.5408 29.3068 61.8777 26.6759C59.1276 23.9591 55.4271 21.5371 51.2022 19.5503L46.9467 28.5997C50.4473 30.2459 53.1154 32.0764 54.8497 33.7898C56.671 35.5891 56.9887 36.768 57.0049 37.14L66.9955 36.7064ZM53.2337 26.85L57.6852 20.178L49.3667 14.628L44.9152 21.3L53.2337 26.85ZM49.7979 20.7349L58.1172 30.0432L65.5733 23.3793L57.2539 14.071L49.7979 20.7349ZM58.0883 30.0105C59.2403 31.3224 60.8725 32.0776 62.6177 32.0698C64.2318 32.0625 65.6138 31.411 66.5936 30.5557C67.5739 29.7 68.4187 28.4057 68.6337 26.7782C68.8661 25.0189 68.298 23.3092 67.1584 22.0182L59.6616 28.6363C58.979 27.8631 58.5555 26.7124 58.7198 25.4686C58.8667 24.3566 59.4307 23.5344 60.0173 23.0223C60.6032 22.5108 61.4785 22.0748 62.5727 22.0699C63.7979 22.0643 64.8969 22.6088 65.6022 23.412L58.0883 30.0105ZM25.8168 6.08534L31.0997 13.0827L39.0805 7.05727L33.7977 0.0599274L25.8168 6.08534ZM34.5634 5.0978L25.5934 6.04799L26.6468 15.9924L35.6168 15.0422L34.5634 5.0978ZM30.6557 13.1244L34.3429 5.17689L25.2716 0.968377L21.5844 8.91591L30.6557 13.1244ZM41.5179 6.79891L36.7824 0.52712L28.8018 6.55285L33.5372 12.8246L41.5179 6.79891ZM30.8383 8.14247L43.6117 13.5648L47.5192 4.3598L34.7458 -1.0625L30.8383 8.14247ZM45.04 3.98997L37.0021 4.83946L38.0531 14.7841L46.091 13.9346L45.04 3.98997ZM22.466 2.03015L19.161 9.16693L28.2352 13.3692L31.5402 6.23239L22.466 2.03015ZM23.1616 6.29692L15.1237 7.16449L16.1968 17.1067L24.2347 16.2392L23.1616 6.29692ZM18.543 16.2209L29.886 8.21652L24.1203 0.0460212L12.7774 8.05036L18.543 16.2209ZM38.3503 27.6916C40.2918 28.2354 42.2008 28.8889 44.0683 29.6487L47.8372 20.3861C45.6198 19.4839 43.353 18.708 41.0478 18.0623L38.3503 27.6916ZM41.8013 22.2308L40.03 24.8697L48.333 30.4429L50.1043 27.804L41.8013 22.2308ZM46.0133 23.0039C42.1306 21.4752 38.0973 20.3608 33.9806 19.6792L32.3472 29.5449C35.7694 30.1115 39.1221 31.0379 42.3497 32.3087L46.0133 23.0039ZM38.1347 24.0728L37.7913 20.9072L27.8497 21.9857L28.1931 25.1513L38.1347 24.0728ZM32.1034 26.3948C34.2226 26.7019 36.3211 27.1375 38.3874 27.6992L41.0108 18.0495C38.5534 17.3814 36.0577 16.8633 33.5375 16.4982L32.1034 26.3948ZM34.6991 22.8743V22.8769H44.6991V22.8743H34.6991ZM39.0658 31.4305C39.0711 31.4313 39.0461 31.4279 38.9791 31.4126C38.911 31.3971 38.8207 31.3743 38.6891 31.3384C38.5217 31.2926 37.9713 31.1333 37.5707 31.0337C36.6741 30.8107 35.0018 30.4582 33.0944 30.9451L35.5675 40.6344C35.0158 40.7752 34.7041 40.6254 35.1574 40.7381C35.2541 40.7622 35.3667 40.7926 35.5207 40.8358C35.6498 40.8719 35.8679 40.9341 36.0533 40.9847C36.4407 41.0906 37.0156 41.2399 37.6625 41.3315L39.0658 31.4305ZM39.3037 35.2683L38.3561 26.2311L28.4106 27.274L29.3582 36.3112L39.3037 35.2683ZM32.5214 31.6777C35.4807 32.1956 38.3804 33.0097 41.1768 34.1076L44.8313 24.7992C41.4111 23.4565 37.8646 22.4609 34.2453 21.8274L32.5214 31.6777ZM38.8498 26.671L34.2099 33.5986L42.5184 39.1634L47.1584 32.2358L38.8498 26.671ZM43.1395 34.8844C43.8852 35.1785 45.4893 36.0149 46.8206 36.95C47.4933 37.4225 47.8589 37.7564 47.9824 37.8944C48.0469 37.9666 47.8909 37.8156 47.7217 37.4499C47.5571 37.0941 47.1929 36.1165 47.5111 34.8338L57.2169 37.2414C57.6377 35.545 57.1922 34.1042 56.7976 33.2513C56.3984 32.3884 55.8638 31.7062 55.4363 31.2282C54.5757 30.2659 53.504 29.4241 52.5684 28.7669C50.6831 27.4427 48.3871 26.2044 46.8088 25.5819L43.1395 34.8844ZM47.5542 34.6715C47.8449 33.6481 48.4039 33.0261 48.6971 32.7497C49.0156 32.4494 49.2777 32.3111 49.3586 32.271C49.5147 32.1937 49.3682 32.2978 48.7113 32.3867L50.0522 42.2964C51.3989 42.1142 52.6815 41.7845 53.7969 41.2321C54.6452 40.812 56.5189 39.7094 57.1738 37.4037L47.5542 34.6715ZM48.7564 32.3808C47.882 32.491 47.1335 32.7445 46.6454 32.9289C46.1645 33.1106 45.6597 33.3363 45.3981 33.4497C45.0587 33.5969 44.9155 33.6515 44.8411 33.6752C44.7585 33.7016 44.9865 33.6136 45.403 33.6145L45.382 43.6145C46.413 43.6166 47.2932 43.3896 47.8818 43.2017C48.4786 43.0112 49.0255 42.7765 49.3761 42.6244C49.8046 42.4387 49.9898 42.3553 50.1801 42.2834C50.3632 42.2142 50.267 42.2695 50.007 42.3023L48.7564 32.3808ZM45.3925 33.6145C46.2236 33.6145 46.8414 33.8274 47.0762 33.9145C47.3664 34.0222 47.579 34.1342 47.6853 34.1931C47.8968 34.3101 48.0281 34.4077 48.0399 34.4162C48.0787 34.4446 48.0624 34.4347 47.9684 34.354L41.4532 41.9403C41.5787 42.0481 41.8413 42.2718 42.1351 42.4868C42.2743 42.5886 42.5271 42.7677 42.8437 42.9429C43.0026 43.0308 43.2637 43.1661 43.597 43.2898C43.8749 43.3929 44.5303 43.6145 45.3925 43.6145V33.6145ZM48.2967 34.6627C46.8047 33.1273 44.9821 32.5805 43.911 32.3353C43.0136 32.1298 41.5365 31.9462 41.385 31.9214L39.7741 41.7908C40.0078 41.829 40.2345 41.8612 40.4286 41.8879C40.6483 41.9183 40.7863 41.9364 40.9685 41.9621C41.3065 42.0099 41.5207 42.0468 41.6795 42.0831C41.8382 42.1195 41.8379 42.1329 41.7481 42.0914C41.6479 42.045 41.3976 41.9122 41.1249 41.6316L48.2967 34.6627ZM44.7458 39.6206L49.1404 32.9977L40.8079 27.4687L36.4133 34.0916L44.7458 39.6206ZM35.5916 32.1921C35.6495 32.244 35.639 32.244 35.4995 32.0817C35.4577 32.0331 35.1048 31.6119 34.9124 31.3948C34.4603 30.8845 33.3911 29.706 31.7034 29.0652L28.1538 38.414C27.7578 38.2636 27.5099 38.077 27.4149 37.9988C27.3293 37.9283 27.3214 37.9064 27.4274 38.0261C27.4767 38.0817 27.5343 38.1491 27.6185 38.2489C27.691 38.3349 27.806 38.4722 27.9146 38.5986C28.1307 38.85 28.4784 39.245 28.9133 39.6352L35.5916 32.1921ZM31.8518 29.1243C28.9692 27.9231 27.1817 26.8168 26.2449 26.0722C25.7591 25.686 25.6522 25.5157 25.7175 25.6079C25.7511 25.6554 25.9212 25.8996 26.0644 26.3268C26.2012 26.7348 26.4144 27.6197 26.1251 28.7304L16.4479 26.2103C15.7885 28.7424 17.0985 30.74 17.5555 31.3856C18.2265 32.3336 19.1077 33.1733 20.0224 33.9004C21.8864 35.3821 24.5491 36.9147 28.0054 38.3549L31.8518 29.1243ZM26.1096 28.7887C25.6985 30.2925 24.6875 31.0028 24.398 31.1859C24.0635 31.3974 23.8672 31.4322 24.0033 31.3938C24.2512 31.3237 24.827 31.2233 25.7283 31.1666C27.5309 31.0532 29.4883 31.1768 30.3303 31.3318L32.14 21.4969C30.3018 21.1586 27.4966 21.0357 25.1007 21.1863C23.9029 21.2616 22.5205 21.4209 21.2821 21.7711C20.6751 21.9428 19.8536 22.2279 19.0532 22.7341C18.2979 23.2118 16.9803 24.261 16.4634 26.1521L26.1096 28.7887ZM26.2635 26.9468L27.2809 36.4461L37.224 35.3812L36.2067 25.8819L26.2635 26.9468ZM44.5998 59.5957C34.9508 64.0925 25.209 61.6279 19.2304 55.7555C13.371 50 10.9151 40.7693 16.4152 30.7015L7.63938 25.9072C-0.0496063 39.9816 3.24083 54.0668 12.223 62.8895C21.086 71.5953 35.2811 74.9713 48.824 68.6597L44.5998 59.5957ZM7.28222 29.8806C8.09334 32.3224 9.64773 34.5199 11.5699 36.4389L18.6351 29.3619C17.4536 28.1825 16.9527 27.2712 16.7723 26.7282L7.28222 29.8806ZM11.0596 35.8423C10.9906 35.7475 11.0441 35.8047 11.2564 36.2435C11.347 36.4308 11.4429 36.637 11.5594 36.8883C11.6701 37.1271 11.8006 37.4091 11.9355 37.691C12.1951 38.233 12.5511 38.9453 12.9873 39.6227C13.3705 40.2178 14.1159 41.2737 15.322 42.0468L20.7184 33.6278C21.3383 34.0252 21.5338 34.4243 21.3948 34.2085C21.3088 34.0749 21.1703 33.8222 20.9548 33.3721C20.8522 33.1578 20.7499 32.937 20.6318 32.6821C20.5193 32.4396 20.3901 32.1611 20.2584 31.8887C20.0259 31.4082 19.6456 30.6459 19.1454 29.9585L11.0596 35.8423ZM14.9917 41.8158C16.1257 42.679 17.3673 43.1457 18.6096 43.2952C19.7541 43.4329 20.7257 43.2764 21.2523 43.1792C21.4687 43.1392 21.8086 43.0685 21.8651 43.0572C22.0043 43.0296 22.012 43.0316 21.9669 43.0365C21.8655 43.0477 21.2434 43.1068 20.476 42.7814L24.3796 33.5748C22.9666 32.9757 21.6722 33.0087 20.8751 33.0963C20.4822 33.1395 20.1361 33.2053 19.9162 33.249C19.6136 33.3091 19.5889 33.3173 19.4358 33.3455C19.2233 33.3848 19.4358 33.3224 19.8045 33.3668C20.2711 33.423 20.7203 33.6088 21.0487 33.8588L14.9917 41.8158ZM20.0831 42.5943C22.2433 43.7412 24.4672 44.7638 26.7439 45.6573L30.397 36.3485C28.4745 35.594 26.5965 34.7304 24.7724 33.7619L20.0831 42.5943ZM24.9363 44.4369C24.7614 44.2519 24.739 44.1712 24.9352 44.4911C24.9685 44.5453 25.4285 45.3206 25.6169 45.6196C25.8979 46.0656 26.3448 46.7389 26.9476 47.372C27.5332 47.9871 28.5871 48.9086 30.1548 49.3154L32.6666 39.636C33.6224 39.8841 34.1204 40.4034 34.1902 40.4768C34.2773 40.5682 34.2485 40.5601 34.0776 40.2889C34.0021 40.1691 33.9207 40.0336 33.8147 39.8553C33.7193 39.6948 33.5881 39.4722 33.4592 39.2622C33.3276 39.0477 33.1616 38.7851 32.9713 38.515C32.785 38.2505 32.5289 37.912 32.2046 37.5688L24.9363 44.4369ZM30.057 49.289C31.2716 49.6306 32.5149 49.634 33.6961 49.3039C34.8129 48.9917 35.647 48.4452 36.1934 48.0171C36.7149 47.6085 37.1403 47.17 37.3255 46.9818C37.6029 46.6997 37.5776 46.7336 37.5058 46.7913L31.244 38.9945C30.975 39.2105 30.7511 39.4194 30.5892 39.5762C30.4331 39.7274 30.2804 39.8838 30.1959 39.9697C29.9673 40.2022 29.9666 40.192 30.0259 40.1455C30.1102 40.0795 30.4459 39.829 31.0044 39.6729C31.2902 39.5931 31.6019 39.5472 31.9259 39.5484C32.2484 39.5496 32.5322 39.5972 32.7644 39.6625L30.057 49.289ZM33.0554 47.7157C34.6125 48.1417 36.0986 48.2944 37.2665 48.392C38.5667 48.5006 39.3494 48.5384 40.1905 48.6711L41.7483 38.7931C40.4283 38.585 39.0085 38.5027 38.0991 38.4267C37.0574 38.3397 36.3268 38.2432 35.6943 38.0702L33.0554 47.7157ZM40.2964 48.6866C39.5407 48.5839 39.0382 48.3022 38.8409 48.1788C38.6334 48.049 38.5433 47.9547 38.5838 47.9933C38.615 48.023 38.689 48.0982 38.8229 48.2506C38.9582 48.4046 39.0996 48.5735 39.2944 48.8062L46.9617 42.3865C46.6551 42.0203 46.09 41.3322 45.4788 40.7504C45.0138 40.3077 43.6641 39.0522 41.6425 38.7776L40.2964 48.6866ZM39.1125 48.5756C40.5452 50.5065 42.8976 52.9167 46.449 52.987C49.7728 53.0527 52.2603 50.9803 53.7968 49.4581L46.7587 42.3542C46.5054 42.6052 46.2993 42.7882 46.1363 42.9191C45.9722 43.0509 45.8757 43.1105 45.8432 43.1291C45.8119 43.1469 45.8702 43.1093 46.011 43.0681C46.1594 43.0246 46.3781 42.9836 46.6468 42.9889C46.9189 42.9943 47.1689 43.0458 47.3764 43.1197C47.576 43.1908 47.6924 43.2668 47.7241 43.289C47.7523 43.3088 47.7099 43.2833 47.6008 43.1702C47.4921 43.0576 47.3393 42.881 47.1435 42.6171L39.1125 48.5756ZM53.6161 49.6285C53.9283 49.3485 54.1842 49.1217 54.3837 48.9653C54.4893 48.8826 54.4653 48.9102 54.3442 48.982C54.2831 49.0183 54.1059 49.1207 53.8406 49.2259C53.7026 49.2806 53.499 49.3528 53.2423 49.4139C52.9916 49.4736 52.6179 49.5403 52.1574 49.5403V39.5403C51.2122 39.5403 50.485 39.799 50.1553 39.9297C49.7677 40.0834 49.4536 40.2562 49.2445 40.3801C48.8275 40.6273 48.4639 40.8996 48.216 41.0939C47.7087 41.4914 47.2029 41.9475 46.9393 42.1839L53.6161 49.6285ZM51.9244 49.5349C56.6006 49.753 60.6198 48.0739 63.3485 45.4311L56.3915 38.2478C55.6757 38.941 54.3553 39.6374 52.3905 39.5457L51.9244 49.5349ZM54.8755 41.6041C54.5026 49.52 50.3573 56.6403 44.4325 59.6749L48.9912 68.5753C58.7446 63.5798 64.3595 52.791 64.8645 42.0748L54.8755 41.6041ZM41.7119 64.1251V64.1277H51.7119V64.1251H41.7119ZM54.9812 36.7432C55.0646 36.4439 55.1084 36.6415 54.6269 36.9486C54.2146 37.2115 53.5024 37.4824 52.4645 37.4358L52.0156 47.4257C57.8973 47.69 63.2365 44.3722 64.6143 39.4271L54.9812 36.7432ZM52.3822 37.4328C50.3908 37.3761 48.8224 38.1499 47.8255 38.7921C46.8553 39.4173 46.0144 40.1945 45.4877 40.6817L52.2791 48.0219C52.5465 47.7744 52.7479 47.5922 52.926 47.4425C53.1034 47.2934 53.202 47.224 53.2418 47.1984C53.2817 47.1726 53.2013 47.2309 53.0154 47.2956C52.8151 47.3652 52.4972 47.4401 52.0979 47.4287L52.3822 37.4328ZM45.5835 40.5954C45.3868 40.7682 45.2211 40.9141 45.0546 41.0552C44.8884 41.1961 44.7662 41.2937 44.6804 41.3574C44.5766 41.4345 44.6153 41.3951 44.7649 41.3171C44.8454 41.2752 45.0238 41.1873 45.2821 41.1038C45.526 41.0249 45.9893 40.901 46.6009 40.901V50.901C47.9614 50.901 48.999 50.3871 49.3876 50.1845C49.8986 49.9181 50.3354 49.6139 50.6431 49.3853C51.2535 48.9319 51.8585 48.3935 52.1833 48.1082L45.5835 40.5954ZM48.1968 41.1626C48.9259 41.4081 49.2092 41.796 48.9719 41.5501C48.7153 41.2842 48.5765 41.0887 47.9811 40.3919C47.2443 39.5297 45.1481 36.9938 41.6905 36.6633L40.7389 46.618C40.1839 46.5649 39.8631 46.3335 39.8432 46.3186C39.8388 46.3152 39.8834 46.3488 39.984 46.4506C40.0852 46.5532 40.2094 46.6903 40.3787 46.8883C40.606 47.1544 41.2446 47.9434 41.7761 48.4943C42.3272 49.0652 43.4096 50.1021 45.0049 50.6395L48.1968 41.1626ZM41.9386 36.6933C40.666 36.5071 39.26 36.4265 38.3731 36.3526C37.3438 36.2668 36.6395 36.1711 36.061 36.0118L33.4066 45.6531C34.9195 46.0696 36.3881 46.2218 37.5424 46.318C38.8393 46.4261 39.6281 46.4617 40.4909 46.588L41.9386 36.6933ZM35.9976 35.9948C33.4578 35.3313 31.42 36.2936 30.2611 37.118C29.3341 37.7775 28.4238 38.7904 28.3921 38.8225L35.5137 45.8427C35.637 45.7177 35.7633 45.5849 35.8418 45.5028C35.9336 45.4067 35.9946 45.3437 36.0483 45.2902C36.1645 45.1745 36.1539 45.1982 36.0576 45.2667C35.9563 45.3388 35.6543 45.5374 35.1708 45.6654C34.6389 45.8062 34.0417 45.8195 33.47 45.6701L35.9976 35.9948ZM36.001 39.3978C36.0014 39.3984 35.9944 39.3887 35.9792 39.3658C35.964 39.343 35.9437 39.3114 35.9171 39.2688C35.8616 39.1796 35.7963 39.07 35.7079 38.9188C35.557 38.6609 35.2913 38.1962 35.0179 37.7687C34.7408 37.3355 34.3302 36.7367 33.7848 36.1616C33.2487 35.5965 32.3747 34.8312 31.1184 34.3735L27.6956 43.7695C26.9816 43.5094 26.6033 43.1214 26.5293 43.0433C26.4459 42.9554 26.4636 42.9535 26.5938 43.1571C26.7277 43.3664 26.8484 43.5784 27.0756 43.967C27.2604 44.2831 27.5565 44.787 27.9049 45.2675L36.001 39.3978ZM31.1726 34.3936C29.3498 33.7056 27.5798 32.885 25.8768 31.9385L21.0185 40.679C23.1482 41.8628 25.3618 42.889 27.6414 43.7494L31.1726 34.3936ZM25.7643 31.8778C22.8812 30.3704 20.1723 31.0487 19.2882 31.2609L21.6219 40.9848C21.7813 40.9465 21.8537 40.9319 21.8997 40.9244C21.9401 40.9177 21.9203 40.9236 21.8589 40.9242C21.7939 40.9247 21.6836 40.9192 21.5444 40.8888C21.4013 40.8575 21.2592 40.8066 21.131 40.7397L25.7643 31.8778ZM19.3966 31.2361C19.2281 31.2726 19.1602 31.2857 19.1372 31.2897C19.1052 31.2953 19.2405 31.2688 19.4614 31.2592C19.6967 31.249 20.1372 31.252 20.6793 31.3895C21.264 31.5378 21.7707 31.7919 22.1813 32.0851L16.3689 40.2225C17.6023 41.1035 18.9001 41.293 19.895 41.2498C20.5778 41.2202 21.2506 41.0665 21.5136 41.0095L19.3966 31.2361ZM22.7257 32.5354C23.1257 32.9168 23.2142 33.1875 23.0217 32.8256C22.8841 32.5669 22.7268 32.2267 22.4885 31.7048C22.2823 31.2534 21.9953 30.6203 21.6888 30.0432C21.4364 29.568 20.9056 28.6022 20.0668 27.7974L13.1437 35.0134C12.7503 34.636 12.6646 34.3712 12.8571 34.7337C12.9955 34.9944 13.1532 35.3357 13.3918 35.8583C13.5983 36.3105 13.8857 36.944 14.193 37.5218C14.4454 37.9963 14.979 38.966 15.8244 39.7722L22.7257 32.5354ZM20.2248 27.9559C18.4873 26.1328 18.7973 25.6276 18.7763 26.2275C18.7397 27.2777 17.9514 27.4676 18.6589 27.096C19.4017 26.7059 20.8417 26.2825 23.0312 26.0695C25.1408 25.8643 27.6215 25.8847 30.207 26.1385L31.1839 16.1864C28.0747 15.8811 24.9318 15.8374 22.0628 16.1165C19.2739 16.3879 16.3805 16.9974 14.0093 18.2427C11.6029 19.5065 8.92008 21.9343 8.7824 25.8786C8.66044 29.3725 10.6629 32.4177 12.9857 34.8549L20.2248 27.9559ZM25.7247 21.7025L26.0655 24.8397L36.007 23.7596L35.6662 20.6224L25.7247 21.7025ZM31.602 19.3317C27.1274 18.8222 23.3119 18.9261 20.3961 19.8731C18.9069 20.3567 17.3343 21.1632 16.1156 22.5339C14.8051 24.0078 14.1571 25.8613 14.2469 27.7927C14.4058 31.2097 16.756 33.86 18.7564 35.5354C20.9924 37.408 23.9676 39.0603 27.3889 40.3426L30.8984 30.9787C28.2674 29.9926 26.3499 28.8511 25.1771 27.8689C24.5914 27.3784 24.2894 27.0095 24.1627 26.8171C24.0229 26.6048 24.2111 26.7894 24.2361 27.3282C24.2495 27.6166 24.2119 27.9641 24.0834 28.3275C23.9547 28.6911 23.7681 28.9768 23.5888 29.1785C23.2562 29.5526 23.0622 29.5213 23.4849 29.3841C23.8858 29.2539 24.6324 29.0988 25.8415 29.0471C27.0329 28.9962 28.5615 29.0501 30.4706 29.2675L31.602 19.3317ZM26.2434 39.7336C25.9849 39.5494 25.8871 39.4139 26.0226 39.5659C26.0762 39.626 26.1395 39.7002 26.2452 39.8249C26.3383 39.9349 26.4744 40.0962 26.6164 40.2581C27.0611 40.765 28.3287 42.2286 30.3665 42.8592L33.3224 33.306C33.8245 33.4614 34.1251 33.6901 34.2138 33.7624C34.2922 33.8264 34.2829 33.8335 34.1335 33.6632C34.0621 33.5818 33.9896 33.496 33.877 33.363C33.7769 33.2448 33.6373 33.08 33.4885 32.9131C33.2193 32.611 32.7194 32.0687 32.0439 31.5877L26.2434 39.7336ZM30.107 42.771C32.2124 43.5513 34.1103 43.1144 34.8329 42.9474C35.4123 42.8135 35.3607 42.8135 35.5633 42.774C35.6511 42.7569 35.3915 42.8213 34.9688 42.7796L35.9499 32.8279C34.9772 32.732 34.1467 32.8619 33.6484 32.9591C33.3876 33.01 33.1504 33.0663 32.9827 33.107C32.7793 33.1563 32.6999 33.1768 32.5813 33.2042C32.0833 33.3193 32.7236 33.0761 33.582 33.3942L30.107 42.771ZM34.0811 42.61C35.2785 42.9534 36.4229 43.2216 37.4951 43.4596L39.6618 33.6971C38.6632 33.4755 37.7471 33.2583 36.8376 32.9974L34.0811 42.61ZM37.5691 43.4754C39.0047 43.7713 40.4681 44.0332 41.9282 44.2215L43.2073 34.3037C42.0646 34.1563 40.8582 33.9431 39.5878 33.6813L37.5691 43.4754ZM40.9209 43.9836C40.4842 43.8313 40.2413 43.643 40.2933 43.6802C40.3108 43.6927 40.3463 43.7191 40.4484 43.7982C40.5288 43.8606 40.6863 43.9837 40.8466 44.1026C41.4807 44.5729 43.0227 45.6635 45.2611 45.6876L45.3689 35.6882C46.4092 35.6994 47.0217 36.2322 46.8037 36.0706C46.751 36.0315 46.7004 35.992 46.5745 35.8944C46.4702 35.8136 46.3012 35.6828 46.1131 35.5482C45.754 35.2911 45.0953 34.8488 44.2146 34.5416L40.9209 43.9836ZM44.9684 45.6758C46.925 45.8118 48.5811 45.188 49.4188 44.855C49.6535 44.7618 49.8768 44.6681 50.056 44.5927C50.2495 44.5114 50.3887 44.4526 50.5231 44.3984C50.8067 44.284 50.867 44.2739 50.8192 44.2851L48.533 34.5499C47.8254 34.7161 47.2012 34.9554 46.7815 35.1248C46.5641 35.2125 46.347 35.3042 46.1801 35.3744C45.999 35.4505 45.8581 35.5094 45.7253 35.5621C45.0932 35.8134 45.2284 35.6698 45.6616 35.6999L44.9684 45.6758ZM50.3588 44.3707C53.4737 43.9413 57.9299 42.5132 59.2069 37.9366L49.5749 35.2489C49.6601 34.9435 49.8093 34.6664 49.9874 34.4483C50.1564 34.2412 50.2985 34.1511 50.3204 34.138C50.3371 34.1279 50.2556 34.179 50.0234 34.2508C49.7934 34.3219 49.4574 34.4004 48.9934 34.4643L50.3588 44.3707ZM59.0402 38.4324C60.0533 35.8718 59.3254 33.5112 58.5021 31.9977C57.6888 30.5027 56.5078 29.2691 55.4261 28.3265C53.2379 26.4197 50.4118 24.8077 48.0362 23.8518L44.3031 33.1288C45.8032 33.7324 47.6312 34.798 48.8564 35.8657C49.1441 36.1164 49.3605 36.3346 49.5137 36.511C49.6714 36.6926 49.7217 36.7836 49.7178 36.7764C49.7159 36.7729 49.6086 36.5793 49.5576 36.2172C49.5015 35.8193 49.5271 35.2954 49.7416 34.7531L59.0402 38.4324ZM50.3362 31.2544L52.0868 28.6155L43.7538 23.0874L42.0032 25.7262L50.3362 31.2544ZM45.8239 30.3907C49.594 32.1319 52.2101 34.0209 53.6966 35.59C55.4412 37.4316 54.7081 37.7313 54.9784 36.7533L64.617 39.4171C65.8143 35.0849 63.3021 31.1889 60.9561 28.7126C58.352 25.9639 54.5659 23.4131 50.0167 21.3121L45.8239 30.3907Z" fill="white" mask="url(#path-1-inside-1_518_51663)"/>
</g>
</g>
</g>
</g>
<defs>
<clipPath id="clip0_518_51663">
<rect width="69" height="69" fill="white" transform="translate(0.5)"/>
</clipPath>
</defs>
</svg>
