<svg width="16" height="11" viewBox="0 0 16 11" fill="none" xmlns="http://www.w3.org/2000/svg">
<path fill-rule="evenodd" clip-rule="evenodd" d="M14.8017 7.62939e-05H1.19828C0.536469 7.62939e-05 0 0.536545 0 1.19836V9.28458C0 9.94636 0.536469 10.4829 1.19828 10.4829H14.8017C15.4635 10.4829 16 9.94639 16 9.28458V1.19836C16 0.536545 15.4635 7.62939e-05 14.8017 7.62939e-05Z" fill="#F5F5F5"/>
<path fill-rule="evenodd" clip-rule="evenodd" d="M0.065918 0.806451H15.9341C15.7717 0.33717 15.3262 7.62939e-05 14.8017 7.62939e-05H1.19829C0.673793 7.62939e-05 0.228324 0.33717 0.065918 0.806451Z" fill="#FF4B55"/>
<rect y="3.22552" width="16" height="0.806344" fill="#FF4B55"/>
<rect y="1.6127" width="16" height="0.806344" fill="#FF4B55"/>
<path fill-rule="evenodd" clip-rule="evenodd" d="M0 5.36876C0 5.52111 0.123531 5.64464 0.275875 5.64464H16V4.83826H0V5.36876Z" fill="#FF4B55"/>
<rect y="8.06395" width="16" height="0.806375" fill="#FF4B55"/>
<path fill-rule="evenodd" clip-rule="evenodd" d="M15.9341 9.67645H0.065918C0.228324 10.1457 0.673824 10.4828 1.19829 10.4828H14.8017C15.3262 10.4828 15.7717 10.1457 15.9341 9.67645Z" fill="#FF4B55"/>
<rect y="6.45114" width="16" height="0.806344" fill="#FF4B55"/>
<path fill-rule="evenodd" clip-rule="evenodd" d="M0.275875 5.64464H7.17244C7.32478 5.64464 7.44831 5.52111 7.44831 5.36876V0.275921C7.44831 0.123546 7.32478 4.57764e-05 7.17244 4.57764e-05H1.19828C0.536469 7.70264e-05 0 0.536546 0 1.19836V5.36876C0 5.52114 0.123531 5.64464 0.275875 5.64464Z" fill="#41479B"/>
<path fill-rule="evenodd" clip-rule="evenodd" d="M0.774574 0.633241L0.835636 0.816366L1.02867 0.817835C1.05367 0.818053 1.06401 0.849928 1.04392 0.864772L0.888636 0.979428L0.946886 1.16346C0.954449 1.18727 0.927292 1.20702 0.906949 1.19246L0.749917 1.08024L0.592886 1.19249C0.572542 1.20705 0.545449 1.1873 0.552949 1.16349L0.611199 0.97946L0.455917 0.864803C0.435824 0.849928 0.446167 0.818053 0.471167 0.817866L0.664199 0.816397L0.725261 0.633272C0.733136 0.609522 0.766636 0.609522 0.774574 0.633241Z" fill="#F5F5F5"/>
<path fill-rule="evenodd" clip-rule="evenodd" d="M0.774574 1.59117L0.835636 1.7743L1.02867 1.77577C1.05367 1.77598 1.06401 1.80783 1.04392 1.8227L0.888636 1.93739L0.946886 2.12142C0.954449 2.14523 0.927292 2.16498 0.906949 2.15042L0.749917 2.0382L0.592886 2.15045C0.572542 2.16498 0.545449 2.14527 0.552949 2.12145L0.611199 1.93742L0.455917 1.82273C0.435824 1.80786 0.446167 1.77602 0.471167 1.7758L0.664199 1.77433L0.725261 1.5912C0.733136 1.56748 0.766636 1.56748 0.774574 1.59117Z" fill="#F5F5F5"/>
<path fill-rule="evenodd" clip-rule="evenodd" d="M0.774574 2.54914L0.835636 2.73227L1.02867 2.73374C1.05367 2.73395 1.06401 2.7658 1.04392 2.78067L0.888636 2.89536L0.946886 3.07939C0.954449 3.1032 0.927292 3.12295 0.906949 3.10839L0.749917 2.99617L0.592886 3.10842C0.572542 3.12295 0.545449 3.10327 0.552949 3.07942L0.611199 2.89539L0.455917 2.7807C0.435824 2.76583 0.446167 2.73399 0.471167 2.73377L0.664199 2.7323L0.725261 2.54917C0.733136 2.52542 0.766636 2.52542 0.774574 2.54914Z" fill="#F5F5F5"/>
<path fill-rule="evenodd" clip-rule="evenodd" d="M0.774574 3.50708L0.835636 3.69021L1.02867 3.69167C1.05367 3.69189 1.06401 3.72377 1.04392 3.73861L0.888636 3.8533L0.946886 4.03733C0.954449 4.06114 0.927292 4.08089 0.906949 4.06633L0.749917 3.95411L0.592886 4.06636C0.572542 4.08089 0.545449 4.06117 0.552949 4.03736L0.611199 3.85333L0.455917 3.73864C0.435824 3.72383 0.446167 3.69192 0.471167 3.69171L0.664199 3.69024L0.725261 3.50711C0.733136 3.48336 0.766636 3.48336 0.774574 3.50708Z" fill="#F5F5F5"/>
<path fill-rule="evenodd" clip-rule="evenodd" d="M0.774574 4.46502L0.835636 4.64814L1.02867 4.64961C1.05367 4.64983 1.06401 4.68168 1.04392 4.69655L0.888636 4.81124L0.946886 4.99527C0.954449 5.01908 0.927292 5.03883 0.906949 5.02427L0.749917 4.91205L0.592886 5.0243C0.572542 5.03883 0.545449 5.01911 0.552949 4.9953L0.611199 4.81127L0.455917 4.69658C0.435824 4.68171 0.446167 4.64986 0.471167 4.64964L0.664199 4.64818L0.725261 4.46505C0.733136 4.44133 0.766636 4.44133 0.774574 4.46502Z" fill="#F5F5F5"/>
<path fill-rule="evenodd" clip-rule="evenodd" d="M1.51823 1.10289L1.57929 1.28602L1.77232 1.28749C1.79732 1.28771 1.80766 1.31958 1.78757 1.33443L1.63229 1.44911L1.69054 1.63314C1.6981 1.65696 1.67094 1.67671 1.6506 1.66214L1.49357 1.54989L1.33654 1.66214C1.31619 1.67668 1.2891 1.65696 1.2966 1.63314L1.35485 1.44911L1.19957 1.33443C1.17948 1.31955 1.18982 1.28771 1.21482 1.28749L1.40785 1.28602L1.46891 1.10289C1.47679 1.07921 1.51032 1.07921 1.51823 1.10289Z" fill="#F5F5F5"/>
<path fill-rule="evenodd" clip-rule="evenodd" d="M1.51823 2.06086L1.57929 2.24399L1.77232 2.24546C1.79732 2.24568 1.80766 2.27755 1.78757 2.2924L1.63229 2.40708L1.69054 2.59111C1.6981 2.61493 1.67094 2.63468 1.6506 2.62011L1.49357 2.50786L1.33654 2.62011C1.31619 2.63465 1.2891 2.61496 1.2966 2.59111L1.35485 2.40708L1.19957 2.2924C1.17948 2.27758 1.18982 2.24568 1.21482 2.24546L1.40785 2.24399L1.46891 2.06086C1.47679 2.03715 1.51032 2.03715 1.51823 2.06086Z" fill="#F5F5F5"/>
<path fill-rule="evenodd" clip-rule="evenodd" d="M1.51823 3.0188L1.57929 3.20192L1.77232 3.20339C1.79732 3.20361 1.80766 3.23545 1.78757 3.25033L1.63229 3.36501L1.69054 3.54905C1.6981 3.57286 1.67094 3.59261 1.6506 3.57805L1.49357 3.4658L1.33654 3.57805C1.31619 3.59258 1.2891 3.57286 1.2966 3.54905L1.35485 3.36501L1.19957 3.25033C1.17948 3.23545 1.18982 3.20361 1.21482 3.20339L1.40785 3.20192L1.46891 3.0188C1.47679 2.99508 1.51032 2.99508 1.51823 3.0188Z" fill="#F5F5F5"/>
<path fill-rule="evenodd" clip-rule="evenodd" d="M1.51823 3.97673L1.57929 4.15986L1.77232 4.16133C1.79732 4.16155 1.80766 4.19339 1.78757 4.20827L1.63229 4.32295L1.69054 4.50698C1.6981 4.5308 1.67094 4.55055 1.6506 4.53598L1.49357 4.42373L1.33654 4.53598C1.31619 4.55055 1.2891 4.5308 1.2966 4.50698L1.35485 4.32295L1.19957 4.20827C1.17948 4.19339 1.18982 4.16155 1.21482 4.16133L1.40785 4.15986L1.46891 3.97673C1.47679 3.95305 1.51032 3.95305 1.51823 3.97673Z" fill="#F5F5F5"/>
<path fill-rule="evenodd" clip-rule="evenodd" d="M2.26188 0.633237L2.32294 0.816362L2.51597 0.817831C2.54097 0.81805 2.55132 0.849925 2.53122 0.864768L2.37594 0.979425L2.43419 1.16346C2.44175 1.18727 2.4146 1.20702 2.39425 1.19246L2.23722 1.08021L2.08019 1.19246C2.05985 1.20702 2.03275 1.18727 2.04025 1.16346L2.0985 0.979425L1.94322 0.864768C1.92313 0.849893 1.93347 0.818018 1.95847 0.817831L2.1515 0.816362L2.21257 0.633237C2.22044 0.609518 2.25397 0.609518 2.26188 0.633237Z" fill="#F5F5F5"/>
<path fill-rule="evenodd" clip-rule="evenodd" d="M2.26188 1.59118L2.32294 1.7743L2.51597 1.77577C2.54097 1.77599 2.55132 1.80783 2.53122 1.82271L2.37594 1.93739L2.43419 2.12143C2.44175 2.14524 2.4146 2.16499 2.39425 2.15043L2.23722 2.03818L2.08019 2.15043C2.05985 2.16496 2.03275 2.14524 2.04025 2.12143L2.0985 1.93739L1.94322 1.82271C1.92313 1.80783 1.93347 1.77599 1.95847 1.77577L2.1515 1.7743L2.21257 1.59118C2.22044 1.56749 2.25397 1.56749 2.26188 1.59118Z" fill="#F5F5F5"/>
<path fill-rule="evenodd" clip-rule="evenodd" d="M2.26188 2.54915L2.32294 2.73227L2.51597 2.73374C2.54097 2.73396 2.55132 2.7658 2.53122 2.78068L2.37594 2.89536L2.43419 3.0794C2.44175 3.10321 2.4146 3.12296 2.39425 3.1084L2.23722 2.99615L2.08019 3.1084C2.05985 3.12293 2.03275 3.10324 2.04025 3.0794L2.0985 2.89536L1.94322 2.78068C1.92313 2.7658 1.93347 2.73396 1.95847 2.73374L2.1515 2.73227L2.21257 2.54915C2.22044 2.52543 2.25397 2.52543 2.26188 2.54915Z" fill="#F5F5F5"/>
<path fill-rule="evenodd" clip-rule="evenodd" d="M2.26188 3.50708L2.32294 3.6902L2.51597 3.69167C2.54097 3.69189 2.55132 3.72376 2.53122 3.73861L2.37594 3.8533L2.43419 4.03733C2.44175 4.06114 2.4146 4.08089 2.39425 4.06633L2.23722 3.95408L2.08019 4.06633C2.05985 4.08086 2.03275 4.06114 2.04025 4.03733L2.0985 3.8533L1.94322 3.73861C1.92313 3.7238 1.93347 3.69189 1.95847 3.69167L2.1515 3.6902L2.21257 3.50708C2.22044 3.48336 2.25397 3.48336 2.26188 3.50708Z" fill="#F5F5F5"/>
<path fill-rule="evenodd" clip-rule="evenodd" d="M2.26188 4.46502L2.32294 4.64814L2.51597 4.64961C2.54097 4.64983 2.55132 4.68167 2.53122 4.69655L2.37594 4.81123L2.43419 4.99527C2.44175 5.01908 2.4146 5.03883 2.39425 5.02427L2.23722 4.91202L2.08019 5.02427C2.05985 5.0388 2.03275 5.01908 2.04025 4.99527L2.0985 4.81123L1.94322 4.69655C1.92313 4.68167 1.93347 4.64983 1.95847 4.64961L2.1515 4.64814L2.21257 4.46502C2.22044 4.44133 2.25397 4.44133 2.26188 4.46502Z" fill="#F5F5F5"/>
<path fill-rule="evenodd" clip-rule="evenodd" d="M3.00504 1.10289L3.0661 1.28602L3.25914 1.28749C3.28414 1.28771 3.29448 1.31958 3.27439 1.33443L3.1191 1.44911L3.17735 1.63314C3.18492 1.65696 3.15776 1.67671 3.13742 1.66214L2.98039 1.54989L2.82335 1.66214C2.80301 1.67668 2.77592 1.65696 2.78342 1.63314L2.84167 1.44911L2.68639 1.33443C2.66629 1.31955 2.67664 1.28771 2.70164 1.28749L2.89467 1.28602L2.95573 1.10289C2.96357 1.07921 2.99714 1.07921 3.00504 1.10289Z" fill="#F5F5F5"/>
<path fill-rule="evenodd" clip-rule="evenodd" d="M3.00504 2.06086L3.0661 2.24399L3.25914 2.24546C3.28414 2.24568 3.29448 2.27755 3.27439 2.2924L3.1191 2.40708L3.17735 2.59111C3.18492 2.61493 3.15776 2.63468 3.13742 2.62011L2.98039 2.50786L2.82335 2.62011C2.80301 2.63465 2.77592 2.61496 2.78342 2.59111L2.84167 2.40708L2.68639 2.2924C2.66629 2.27758 2.67664 2.24568 2.70164 2.24546L2.89467 2.24399L2.95573 2.06086C2.96357 2.03715 2.99714 2.03715 3.00504 2.06086Z" fill="#F5F5F5"/>
<path fill-rule="evenodd" clip-rule="evenodd" d="M3.00504 3.0188L3.0661 3.20192L3.25914 3.20339C3.28414 3.20361 3.29448 3.23545 3.27439 3.25033L3.1191 3.36501L3.17735 3.54905C3.18492 3.57286 3.15776 3.59261 3.13742 3.57805L2.98039 3.4658L2.82335 3.57805C2.80301 3.59258 2.77592 3.57286 2.78342 3.54905L2.84167 3.36501L2.68639 3.25033C2.66629 3.23545 2.67664 3.20361 2.70164 3.20339L2.89467 3.20192L2.95573 3.0188C2.96357 2.99508 2.99714 2.99508 3.00504 3.0188Z" fill="#F5F5F5"/>
<path fill-rule="evenodd" clip-rule="evenodd" d="M3.00504 3.97673L3.0661 4.15986L3.25914 4.16133C3.28414 4.16155 3.29448 4.19339 3.27439 4.20827L3.1191 4.32295L3.17735 4.50698C3.18492 4.5308 3.15776 4.55055 3.13742 4.53598L2.98039 4.42373L2.82335 4.53598C2.80301 4.55055 2.77592 4.5308 2.78342 4.50698L2.84167 4.32295L2.68639 4.20827C2.66629 4.19339 2.67664 4.16155 2.70164 4.16133L2.89467 4.15986L2.95573 3.97673C2.96357 3.95305 2.99714 3.95305 3.00504 3.97673Z" fill="#F5F5F5"/>
<path fill-rule="evenodd" clip-rule="evenodd" d="M3.74873 0.633241L3.80979 0.816366L4.00282 0.817835C4.02782 0.818053 4.03816 0.849928 4.01807 0.864772L3.86279 0.979428L3.92104 1.16346C3.9286 1.18727 3.90144 1.20702 3.8811 1.19246L3.72404 1.08024L3.56701 1.19249C3.54666 1.20705 3.51957 1.1873 3.52707 1.16349L3.58532 0.97946L3.43004 0.864803C3.40994 0.849928 3.42029 0.818053 3.44529 0.817866L3.63832 0.816397L3.69938 0.633272C3.70729 0.609522 3.74082 0.609522 3.74873 0.633241Z" fill="#F5F5F5"/>
<path fill-rule="evenodd" clip-rule="evenodd" d="M3.74873 1.59118L3.80979 1.7743L4.00282 1.77577C4.02782 1.77599 4.03816 1.80783 4.01807 1.82271L3.86279 1.93739L3.92104 2.12143C3.9286 2.14524 3.90144 2.16499 3.8811 2.15043L3.72404 2.03818L3.56701 2.15043C3.54666 2.16496 3.51957 2.14524 3.52707 2.12143L3.58532 1.93739L3.43004 1.82271C3.40994 1.80783 3.42029 1.77599 3.44529 1.77577L3.63832 1.7743L3.69938 1.59118C3.70729 1.56749 3.74082 1.56749 3.74873 1.59118Z" fill="#F5F5F5"/>
<path fill-rule="evenodd" clip-rule="evenodd" d="M3.74873 2.54914L3.80979 2.73227L4.00282 2.73374C4.02782 2.73395 4.03816 2.7658 4.01807 2.78067L3.86279 2.89536L3.92104 3.07939C3.9286 3.1032 3.90144 3.12295 3.8811 3.10839L3.72404 2.99611L3.56701 3.10836C3.54666 3.12289 3.51957 3.10317 3.52707 3.07936L3.58532 2.89533L3.43004 2.78064C3.40994 2.76577 3.42029 2.73392 3.44529 2.7337L3.63832 2.73224L3.69938 2.54911C3.70729 2.52542 3.74082 2.52542 3.74873 2.54914Z" fill="#F5F5F5"/>
<path fill-rule="evenodd" clip-rule="evenodd" d="M3.74873 3.50708L3.80979 3.6902L4.00282 3.69167C4.02782 3.69189 4.03816 3.72376 4.01807 3.73861L3.86279 3.8533L3.92104 4.03733C3.9286 4.06114 3.90144 4.08089 3.8811 4.06633L3.72404 3.95408L3.56701 4.06633C3.54666 4.08086 3.51957 4.06114 3.52707 4.03733L3.58532 3.8533L3.43004 3.73861C3.40994 3.7238 3.42029 3.69189 3.44529 3.69167L3.63832 3.6902L3.69938 3.50708C3.70729 3.48336 3.74082 3.48336 3.74873 3.50708Z" fill="#F5F5F5"/>
<path fill-rule="evenodd" clip-rule="evenodd" d="M3.74873 4.46502L3.80979 4.64814L4.00282 4.64961C4.02782 4.64983 4.03816 4.68167 4.01807 4.69655L3.86279 4.81123L3.92104 4.99527C3.9286 5.01908 3.90144 5.03883 3.8811 5.02427L3.72404 4.91202L3.56701 5.02427C3.54666 5.0388 3.51957 5.01908 3.52707 4.99527L3.58532 4.81123L3.43004 4.69655C3.40994 4.68167 3.42029 4.64983 3.44529 4.64961L3.63832 4.64814L3.69938 4.46502C3.70729 4.44133 3.74082 4.44133 3.74873 4.46502Z" fill="#F5F5F5"/>
<path fill-rule="evenodd" clip-rule="evenodd" d="M4.49235 1.10289L4.55341 1.28602L4.74644 1.28749C4.77144 1.28771 4.78178 1.31958 4.76169 1.33443L4.60641 1.44911L4.66466 1.63314C4.67222 1.65696 4.64507 1.67671 4.62472 1.66214L4.46769 1.54989L4.31066 1.66214C4.29032 1.67668 4.26322 1.65696 4.27072 1.63314L4.32897 1.44911L4.17369 1.33443C4.1536 1.31955 4.16394 1.28771 4.18894 1.28749L4.38197 1.28602L4.44303 1.10289C4.45094 1.07921 4.48444 1.07921 4.49235 1.10289Z" fill="#F5F5F5"/>
<path fill-rule="evenodd" clip-rule="evenodd" d="M4.49235 2.06086L4.55341 2.24399L4.74644 2.24546C4.77144 2.24568 4.78178 2.27755 4.76169 2.2924L4.60641 2.40708L4.66466 2.59111C4.67222 2.61493 4.64507 2.63468 4.62472 2.62011L4.46769 2.50786L4.31066 2.62011C4.29032 2.63465 4.26322 2.61496 4.27072 2.59111L4.32897 2.40708L4.17369 2.2924C4.1536 2.27758 4.16394 2.24568 4.18894 2.24546L4.38197 2.24399L4.44303 2.06086C4.45094 2.03715 4.48444 2.03715 4.49235 2.06086Z" fill="#F5F5F5"/>
<path fill-rule="evenodd" clip-rule="evenodd" d="M4.49235 3.0188L4.55341 3.20192L4.74644 3.20339C4.77144 3.20361 4.78178 3.23545 4.76169 3.25033L4.60641 3.36501L4.66466 3.54905C4.67222 3.57286 4.64507 3.59261 4.62472 3.57805L4.46769 3.4658L4.31066 3.57805C4.29032 3.59258 4.26322 3.57286 4.27072 3.54905L4.32897 3.36501L4.17369 3.25033C4.1536 3.23545 4.16394 3.20361 4.18894 3.20339L4.38197 3.20192L4.44303 3.0188C4.45094 2.99508 4.48444 2.99508 4.49235 3.0188Z" fill="#F5F5F5"/>
<path fill-rule="evenodd" clip-rule="evenodd" d="M4.49235 3.97673L4.55341 4.15986L4.74644 4.16133C4.77144 4.16155 4.78178 4.19339 4.76169 4.20827L4.60641 4.32295L4.66466 4.50698C4.67222 4.5308 4.64507 4.55055 4.62472 4.53598L4.46769 4.42373L4.31066 4.53598C4.29032 4.55055 4.26322 4.5308 4.27072 4.50698L4.32897 4.32295L4.17369 4.20827C4.1536 4.19339 4.16394 4.16155 4.18894 4.16133L4.38197 4.15986L4.44303 3.97673C4.45094 3.95305 4.48444 3.95305 4.49235 3.97673Z" fill="#F5F5F5"/>
<path fill-rule="evenodd" clip-rule="evenodd" d="M5.236 0.633237L5.29706 0.816362L5.49009 0.817831C5.51509 0.81805 5.52544 0.849925 5.50534 0.864768L5.35006 0.979425L5.40831 1.16346C5.41587 1.18727 5.38872 1.20702 5.36837 1.19246L5.21134 1.08021L5.05431 1.19246C5.03397 1.20702 5.00687 1.18727 5.01437 1.16346L5.07262 0.979425L4.91734 0.864768C4.89725 0.849893 4.90759 0.818018 4.93259 0.817831L5.12562 0.816362L5.18669 0.633237C5.19453 0.609518 5.22809 0.609518 5.236 0.633237Z" fill="#F5F5F5"/>
<path fill-rule="evenodd" clip-rule="evenodd" d="M5.236 1.59118L5.29706 1.7743L5.49009 1.77577C5.51509 1.77599 5.52544 1.80783 5.50534 1.82271L5.35006 1.93739L5.40831 2.12143C5.41587 2.14524 5.38872 2.16499 5.36837 2.15043L5.21134 2.03818L5.05431 2.15043C5.03397 2.16496 5.00687 2.14524 5.01437 2.12143L5.07262 1.93739L4.91734 1.82271C4.89725 1.80783 4.90759 1.77599 4.93259 1.77577L5.12562 1.7743L5.18669 1.59118C5.19453 1.56749 5.22809 1.56749 5.236 1.59118Z" fill="#F5F5F5"/>
<path fill-rule="evenodd" clip-rule="evenodd" d="M5.236 2.54915L5.29706 2.73227L5.49009 2.73374C5.51509 2.73396 5.52544 2.7658 5.50534 2.78068L5.35006 2.89536L5.40831 3.0794C5.41587 3.10321 5.38872 3.12296 5.36837 3.1084L5.21134 2.99615L5.05431 3.1084C5.03397 3.12293 5.00687 3.10324 5.01437 3.0794L5.07262 2.89536L4.91734 2.78068C4.89725 2.7658 4.90759 2.73396 4.93259 2.73374L5.12562 2.73227L5.18669 2.54915C5.19453 2.52543 5.22809 2.52543 5.236 2.54915Z" fill="#F5F5F5"/>
<path fill-rule="evenodd" clip-rule="evenodd" d="M5.236 3.50708L5.29706 3.6902L5.49009 3.69167C5.51509 3.69189 5.52544 3.72376 5.50534 3.73861L5.35006 3.8533L5.40831 4.03733C5.41587 4.06114 5.38872 4.08089 5.36837 4.06633L5.21134 3.95408L5.05431 4.06633C5.03397 4.08086 5.00687 4.06114 5.01437 4.03733L5.07262 3.8533L4.91734 3.73861C4.89725 3.7238 4.90759 3.69189 4.93259 3.69167L5.12562 3.6902L5.18669 3.50708C5.19453 3.48336 5.22809 3.48336 5.236 3.50708Z" fill="#F5F5F5"/>
<path fill-rule="evenodd" clip-rule="evenodd" d="M5.236 4.46502L5.29706 4.64814L5.49009 4.64961C5.51509 4.64983 5.52544 4.68167 5.50534 4.69655L5.35006 4.81123L5.40831 4.99527C5.41587 5.01908 5.38872 5.03883 5.36837 5.02427L5.21134 4.91202L5.05431 5.02427C5.03397 5.0388 5.00687 5.01908 5.01437 4.99527L5.07262 4.81123L4.91734 4.69655C4.89725 4.68167 4.90759 4.64983 4.93259 4.64961L5.12562 4.64814L5.18669 4.46502C5.19453 4.44133 5.22809 4.44133 5.236 4.46502Z" fill="#F5F5F5"/>
<path fill-rule="evenodd" clip-rule="evenodd" d="M5.97916 1.10289L6.04023 1.28602L6.23326 1.28749C6.25826 1.28771 6.2686 1.31958 6.24851 1.33443L6.09323 1.44911L6.15148 1.63314C6.15904 1.65696 6.13188 1.67671 6.11154 1.66214L5.95451 1.54989L5.79748 1.66214C5.77713 1.67668 5.75004 1.65696 5.75754 1.63314L5.81579 1.44911L5.66051 1.33443C5.64041 1.31955 5.65076 1.28771 5.67576 1.28749L5.86879 1.28602L5.92985 1.10289C5.93773 1.07921 5.97126 1.07921 5.97916 1.10289Z" fill="#F5F5F5"/>
<path fill-rule="evenodd" clip-rule="evenodd" d="M5.97916 2.06086L6.04023 2.24399L6.23326 2.24546C6.25826 2.24568 6.2686 2.27755 6.24851 2.2924L6.09323 2.40708L6.15148 2.59111C6.15904 2.61493 6.13188 2.63468 6.11154 2.62011L5.95451 2.50786L5.79748 2.62011C5.77713 2.63465 5.75004 2.61496 5.75754 2.59111L5.81579 2.40708L5.66051 2.2924C5.64041 2.27758 5.65076 2.24568 5.67576 2.24546L5.86879 2.24399L5.92985 2.06086C5.93773 2.03715 5.97126 2.03715 5.97916 2.06086Z" fill="#F5F5F5"/>
<path fill-rule="evenodd" clip-rule="evenodd" d="M5.97916 3.0188L6.04023 3.20192L6.23326 3.20339C6.25826 3.20361 6.2686 3.23545 6.24851 3.25033L6.09323 3.36501L6.15148 3.54905C6.15904 3.57286 6.13188 3.59261 6.11154 3.57805L5.95451 3.4658L5.79748 3.57805C5.77713 3.59258 5.75004 3.57286 5.75754 3.54905L5.81579 3.36501L5.66051 3.25033C5.64041 3.23545 5.65076 3.20361 5.67576 3.20339L5.86879 3.20192L5.92985 3.0188C5.93773 2.99508 5.97126 2.99508 5.97916 3.0188Z" fill="#F5F5F5"/>
<path fill-rule="evenodd" clip-rule="evenodd" d="M5.97916 3.97673L6.04023 4.15986L6.23326 4.16133C6.25826 4.16155 6.2686 4.19339 6.24851 4.20827L6.09323 4.32295L6.15148 4.50698C6.15904 4.5308 6.13188 4.55055 6.11154 4.53598L5.95451 4.42373L5.79748 4.53598C5.77713 4.55055 5.75004 4.5308 5.75754 4.50698L5.81579 4.32295L5.66051 4.20827C5.64041 4.19339 5.65076 4.16155 5.67576 4.16133L5.86879 4.15986L5.92985 3.97673C5.93773 3.95305 5.97126 3.95305 5.97916 3.97673Z" fill="#F5F5F5"/>
<path fill-rule="evenodd" clip-rule="evenodd" d="M6.72282 0.633237L6.78388 0.816362L6.97691 0.817831C7.00191 0.81805 7.01225 0.849925 6.99216 0.864768L6.83688 0.979425L6.89513 1.16346C6.90269 1.18727 6.87553 1.20702 6.85519 1.19246L6.69816 1.08021L6.54113 1.19246C6.52078 1.20702 6.49369 1.18727 6.50119 1.16346L6.55944 0.979425L6.40416 0.864768C6.38407 0.849893 6.39441 0.818018 6.41941 0.817831L6.61244 0.816362L6.6735 0.633237C6.68138 0.609518 6.71488 0.609518 6.72282 0.633237Z" fill="#F5F5F5"/>
<path fill-rule="evenodd" clip-rule="evenodd" d="M6.72282 1.59118L6.78388 1.7743L6.97691 1.77577C7.00191 1.77599 7.01225 1.80783 6.99216 1.82271L6.83688 1.93739L6.89513 2.12143C6.90269 2.14524 6.87553 2.16499 6.85519 2.15043L6.69816 2.03818L6.54113 2.15043C6.52078 2.16496 6.49369 2.14524 6.50119 2.12143L6.55944 1.93739L6.40416 1.82271C6.38407 1.80783 6.39441 1.77599 6.41941 1.77577L6.61244 1.7743L6.6735 1.59118C6.68138 1.56749 6.71488 1.56749 6.72282 1.59118Z" fill="#F5F5F5"/>
<path fill-rule="evenodd" clip-rule="evenodd" d="M6.72282 2.54915L6.78388 2.73227L6.97691 2.73374C7.00191 2.73396 7.01225 2.7658 6.99216 2.78068L6.83688 2.89536L6.89513 3.0794C6.90269 3.10321 6.87553 3.12296 6.85519 3.1084L6.69816 2.99615L6.54113 3.1084C6.52078 3.12293 6.49369 3.10324 6.50119 3.0794L6.55944 2.89536L6.40416 2.78068C6.38407 2.7658 6.39441 2.73396 6.41941 2.73374L6.61244 2.73227L6.6735 2.54915C6.68138 2.52543 6.71488 2.52543 6.72282 2.54915Z" fill="#F5F5F5"/>
<path fill-rule="evenodd" clip-rule="evenodd" d="M6.72282 3.50708L6.78388 3.6902L6.97691 3.69167C7.00191 3.69189 7.01225 3.72376 6.99216 3.73861L6.83688 3.8533L6.89513 4.03733C6.90269 4.06114 6.87553 4.08089 6.85519 4.06633L6.69816 3.95408L6.54113 4.06633C6.52078 4.08086 6.49369 4.06114 6.50119 4.03733L6.55944 3.8533L6.40416 3.73861C6.38407 3.7238 6.39441 3.69189 6.41941 3.69167L6.61244 3.6902L6.6735 3.50708C6.68138 3.48336 6.71488 3.48336 6.72282 3.50708Z" fill="#F5F5F5"/>
<path fill-rule="evenodd" clip-rule="evenodd" d="M6.72282 4.46502L6.78388 4.64814L6.97691 4.64961C7.00191 4.64983 7.01225 4.68167 6.99216 4.69655L6.83688 4.81123L6.89513 4.99527C6.90269 5.01908 6.87553 5.03883 6.85519 5.02427L6.69816 4.91202L6.54113 5.02427C6.52078 5.0388 6.49369 5.01908 6.50119 4.99527L6.55944 4.81123L6.40416 4.69655C6.38407 4.68167 6.39441 4.64983 6.41941 4.64961L6.61244 4.64814L6.6735 4.46502C6.68138 4.44133 6.71488 4.44133 6.72282 4.46502Z" fill="#F5F5F5"/>
</svg>
