<svg width="23" height="23" viewBox="0 0 23 23" fill="none" xmlns="http://www.w3.org/2000/svg">
<path d="M8.46771 0.121582C7.34948 0.122407 6.44449 1.0284 6.44531 2.1448C6.44449 3.26121 7.35031 4.1672 8.46853 4.16803H10.4918V2.14563C10.4926 1.02923 9.58676 0.123232 8.46771 0.121582C8.46853 0.121582 8.46853 0.121582 8.46771 0.121582" fill="#36C5F0"/>
<path d="M8.32299 6.19141H2.54312C1.34481 6.19223 0.374117 7.09804 0.375002 8.21422C0.373231 9.33039 1.34392 10.2362 2.54223 10.2378H8.32299C9.5213 10.237 10.492 9.33122 10.4911 8.21504C10.492 7.09804 9.5213 6.19223 8.32299 6.19141Z" fill="#36C5F0"/>
<path d="M22.6324 8.21422C22.6332 7.09804 21.7274 6.19223 20.6092 6.19141C19.4909 6.19223 18.5851 7.09804 18.5859 8.21422V10.2378H20.6092C21.7274 10.237 22.6332 9.33122 22.6324 8.21422Z" fill="#2EB67D"/>
<path d="M16.5621 8.06951V2.28888C16.5629 1.09386 15.6577 0.12335 14.5393 0.121582C13.4208 0.122466 12.5148 1.09298 12.5156 2.28888V8.06951C12.514 9.26541 13.42 10.2359 14.5384 10.2377C15.6569 10.2368 16.5629 9.2663 16.5621 8.06951Z" fill="#2EB67D"/>
<path d="M14.5388 22.3773C15.6571 22.3764 16.5629 21.4704 16.5621 20.354C16.5629 19.2376 15.6571 18.3316 14.5388 18.3308H12.5156V20.354C12.5148 21.4696 13.4206 22.3756 14.5388 22.3773Z" fill="#ECB22E"/>
<path d="M14.6829 16.3074H20.4636C21.6619 16.3066 22.6326 15.4008 22.6317 14.2846C22.6335 13.1684 21.6628 12.2626 20.4645 12.261H14.6837C13.4854 12.2618 12.5147 13.1676 12.5156 14.2838C12.5147 15.4008 13.4845 16.3066 14.6829 16.3074Z" fill="#ECB22E"/>
<path d="M0.375001 14.2842C0.374174 15.4006 1.28 16.3066 2.39822 16.3074C3.51645 16.3066 4.42227 15.4006 4.42144 14.2842V12.261H2.39822C1.28 12.2618 0.374174 13.1678 0.375001 14.2842Z" fill="#E01E5A"/>
<path d="M6.44531 14.4276V20.2087C6.44366 21.4047 7.34967 22.3753 8.46812 22.3771C9.58657 22.3762 10.4926 21.4056 10.4918 20.2096V14.4294C10.4934 13.2333 9.5874 12.2628 8.46895 12.261C7.34967 12.261 6.44449 13.2316 6.44531 14.4276C6.44531 14.4285 6.44531 14.4276 6.44531 14.4276Z" fill="#E01E5A"/>
</svg>
